<svg width="120" height="44" viewBox="0 0 120 44" fill="none" xmlns="http://www.w3.org/2000/svg">
<path d="M119.63 0H0V44H119.63V0Z" fill="#009E96"/>
<path d="M28.9988 6.68251C29.6318 8.53161 27.0595 9.13442 25.8638 9.62612C25.4518 9.79662 25.0399 9.96821 24.6379 10.1585C24.3667 10.2894 24.1054 10.4599 23.824 10.5809C23.5528 10.6909 23.2614 10.7316 22.98 10.7921C22.347 10.9329 21.714 11.0935 21.081 11.2541C19.815 11.5962 18.569 11.9779 17.313 12.3398C16.5996 12.54 15.8761 12.7413 15.1526 12.9217C14.389 13.1131 13.6154 12.9019 12.9522 12.5103C12.3393 12.1484 12.299 11.5654 12.0177 10.9725C11.877 10.6711 11.8972 10.3499 12.1784 10.109C12.2488 10.0485 12.5704 10.0683 12.6708 10.0485C12.8416 10.0287 13.0025 9.99791 13.1632 9.97811C13.4847 9.92751 13.8062 9.86701 14.1379 9.81751C14.4594 9.76691 14.7909 9.72732 15.1125 9.70642C15.4743 9.68662 15.7757 9.76691 16.0872 9.55571C16.4287 9.33461 16.7503 9.11352 17.1221 8.94302C17.8355 8.62182 18.6092 8.45021 19.3728 8.32041C19.6441 8.27971 19.9154 8.24011 20.1867 8.20931C20.3274 8.18951 20.4781 8.21922 20.6187 8.17962C20.7796 8.12902 20.8297 8.03881 20.9604 7.93871C21.2317 7.72751 21.6135 7.72752 21.8848 7.51632C22.6585 6.89372 23.7035 6.6627 24.3264 5.8784C24.7786 5.5066 25.3514 5.35591 25.914 5.32621C26.5169 5.29541 27.1299 5.25581 27.6724 5.54731C28.1849 5.81791 28.8078 6.08961 28.9988 6.68251Z" fill="white"/>
<path d="M50.3002 16.2778C50.3805 15.9874 50.4509 15.675 50.4509 15.3637C50.4509 15.0425 50.2599 14.7609 50.2398 14.4496C50.2197 14.1988 50.3603 13.9172 50.069 13.7863C49.446 13.3441 48.8732 14.0481 48.2503 14.1482C47.7378 14.399 47.356 14.8511 46.9341 15.213C46.6326 15.4649 46.2609 15.6046 45.9393 15.8257C45.6378 16.0369 45.3967 16.3284 45.0952 16.5495C44.4521 17.0324 43.6986 17.3338 43.0354 17.7859C42.4728 18.1577 41.1967 18.0169 40.5838 17.8959C39.4583 17.6847 38.4736 17.1226 37.4286 16.7002C36.9765 16.5198 36.4942 16.3691 36.0722 16.1073C35.5899 15.796 35.3286 15.2636 34.8464 14.9314C34.4143 14.641 33.9822 14.3891 34.1129 13.7863C34.5047 13.3639 35.0474 13.2935 35.5699 13.1637C37.3583 12.8216 39.3076 13.0834 41.046 12.4905C42.0307 12.2287 43.0756 11.9977 44.0302 11.6567C44.2814 11.5654 44.5527 11.4455 44.824 11.3553C45.1154 11.2541 45.2963 11.0429 45.5675 10.9021C46.1704 10.6007 46.7934 10.7822 47.3963 10.6117C48.2403 10.3796 49.0843 10.1189 49.9184 9.8472C50.4006 9.6866 50.8728 9.4864 51.3752 9.3753C51.7771 9.2851 52.1891 9.29501 52.5408 9.06401C53.3949 8.51071 54.4801 8.75271 55.3844 8.35011C56.148 8.00911 57.0121 7.67691 57.826 7.47671C58.2481 7.36561 58.6902 7.31501 59.1222 7.37551C59.8558 7.47671 60.6194 7.65712 61.3429 7.80782C61.9658 7.93872 62.5988 8.02891 63.1515 8.35011C63.4529 8.53161 63.694 8.78241 63.8448 9.10361C63.8849 9.50621 63.7443 9.89782 63.5734 10.2498C63.483 10.4302 63.3826 10.6117 63.282 10.7822C62.9706 11.3443 62.4581 11.4752 61.8754 11.6358C61.2825 11.7964 60.6696 11.8569 60.0667 11.7161C59.7452 11.6457 59.4237 11.4851 59.1624 11.2739C58.1274 10.6216 56.8715 10.802 55.7462 11.0935C55.5953 11.1342 55.4447 11.1738 55.294 11.2343C55.1331 11.2849 54.9824 11.3146 54.8417 11.4246C54.7112 11.5258 54.5806 11.616 54.4298 11.6864C54.0581 11.8877 53.7264 12.0582 53.7366 12.5202C53.7366 13.0625 53.646 13.6961 53.8671 14.2186C54.3595 15.2537 53.7064 16.2987 54.1787 17.3338C54.3896 18.7396 54.8016 20.7097 54.7513 22.3168C54.7513 24.5476 54.9323 27.3306 55.294 29.4811C55.3744 29.9739 55.5351 30.4656 55.6456 30.9584C55.7159 31.2598 55.736 31.581 55.8164 31.8923C55.9773 32.5457 56.1279 33.0286 56.0977 33.7216C56.0676 34.5048 55.9772 35.2891 55.8667 36.0624C55.7462 36.9171 55.4748 37.7608 54.6208 38.1326C53.7867 39.0467 52.2996 38.8762 51.2446 38.5242C50.7924 38.3735 50.2196 37.7201 49.9885 37.3087C49.848 37.0579 49.8681 36.7565 49.7977 36.4749C49.627 35.761 49.3355 35.0779 49.5767 34.3442C50.0992 28.3756 50.6116 22.7095 50.3002 16.7607" fill="white"/>
<path d="M21.2613 13.7467C21.7838 14.3187 22.0148 14.9919 22.3264 15.6651C22.5876 15.9566 22.9293 15.9368 23.2709 15.8158C23.5723 15.7058 23.8939 15.6552 24.1551 15.444C24.4064 15.2438 24.6173 14.9721 24.8585 14.751C25.381 14.2791 25.9436 13.8468 26.6168 13.6257C27.0187 13.4948 27.4307 13.4343 27.8528 13.475C28.526 13.7357 29.3901 13.706 29.7217 14.4089C30.0332 14.8511 29.9528 15.3736 29.8021 15.8367C29.1992 17.0621 27.7221 17.5043 26.6872 18.2776C25.8532 18.7198 24.7379 19.0311 24.3259 19.9661C24.3058 21.4434 25.4915 22.6391 26.436 23.4927C27.8628 24.9799 29.1892 27.2305 31.1083 28.1149C31.671 28.3756 32.1432 28.9091 32.6256 29.3007C32.8868 29.5119 33.1581 29.722 33.4495 29.8837C33.771 30.074 34.1328 30.1444 34.4442 30.3556C34.7557 30.5668 35.1677 30.6669 35.4189 30.9683C35.5193 31.0893 35.6902 31.1091 35.8308 31.1795C36.1122 31.3302 36.3031 31.6316 36.6246 31.6921C36.8054 31.7317 36.9663 31.6921 37.1371 31.7625C37.3079 31.8329 37.4585 31.9836 37.6193 32.0837C38.3428 32.5556 39.0864 33.0077 39.9003 33.3091C40.2117 33.4202 40.5534 33.44 40.8749 33.561C41.1764 33.671 41.3673 33.913 41.6285 34.0934C42.0706 34.4047 42.6735 34.6863 42.8845 35.2187C43.0252 35.5707 42.8443 36.0932 42.6132 36.3638C42.2917 36.7565 41.7089 36.8566 41.2367 36.927C40.7643 36.9974 40.272 37.2185 39.7897 37.279C39.5285 37.3087 39.2572 37.2988 38.9859 37.3186C38.4132 37.3593 37.8504 37.4187 37.2778 37.4792C36.1322 37.6002 34.9768 37.7102 33.8213 37.6904C33.1882 37.6805 32.4447 37.7707 31.882 37.4495C31.1083 37.0073 30.3949 36.3341 29.6815 35.7819C28.7471 35.068 28.1039 34.0736 27.4307 33.1089C26.7274 32.0936 26.0542 31.0684 25.3508 30.0542C24.778 29.2402 24.2054 28.3052 23.4316 27.6628C23.1604 27.4417 22.9795 27.1205 22.7082 26.8895C22.4771 26.6882 22.2661 26.4671 22.0551 26.2361C21.633 25.7631 21.1909 25.3418 20.5379 25.2813C20.2966 25.6531 20.1158 26.0645 20.0254 26.4968C19.9551 26.7883 19.9751 27.0897 19.925 27.3812C19.8847 27.6221 19.7943 27.8641 19.744 28.105C19.6436 28.6374 19.6336 29.2105 19.3723 29.6923C19.2115 29.9838 19.1211 30.2247 19.0407 30.5459C18.9604 30.8682 18.7995 31.2092 18.679 31.5216C18.6086 31.6921 18.488 31.8428 18.4177 32.0133C18.277 32.3246 18.1966 32.6568 18.0359 32.9681C17.8551 33.3201 17.6541 33.6512 17.433 33.9724C17.0009 34.6258 16.4986 35.2385 15.9459 35.8017C15.6344 36.1229 15.3129 36.4243 14.9913 36.7158C14.7301 36.9468 14.5091 37.1987 14.2076 37.3791C13.9062 37.5595 13.5545 37.6299 13.223 37.741C12.5095 37.9621 11.8665 38.2833 11.1028 38.324C10.6506 38.3438 10.2085 38.2228 9.81666 38.0017C9.64584 37.9115 9.35446 37.9214 9.16354 37.851C8.94249 37.7707 8.72143 37.6508 8.53053 37.51C8.30947 37.3494 8.0884 37.1679 7.92764 36.9468C7.83721 36.8269 7.75685 36.696 7.73675 36.5453C7.68652 36.234 7.7468 36.1229 7.54584 35.8622C7.28459 35.5201 7.42527 35.2891 7.35492 34.9173C7.31474 34.7369 7.23434 34.5653 7.21424 34.3849C7.18409 34.0835 7.43531 33.8525 7.60613 33.6314C7.78699 33.3905 7.94775 33.1188 8.24918 33.0187C8.60086 32.8977 9.09321 32.9175 9.44489 32.9879C9.64585 33.0286 9.84682 33.099 10.0176 33.209C10.299 33.3905 10.4296 33.6512 10.7913 33.44C11.0626 33.2794 11.2133 32.9978 11.4444 32.7976C11.6252 32.6469 11.6856 32.395 11.8665 32.2245C12.0674 32.0331 12.2483 31.8329 12.4091 31.6217C12.7506 31.1795 13.0019 30.6768 13.1827 30.1444C14.1172 29.1599 14.2177 27.753 13.8559 26.4066C12.8913 26.3263 11.8866 26.829 10.8717 26.4869C10.1985 25.9952 9.20373 25.7334 8.87215 24.9799C8.40994 24.4871 8.01808 23.8645 7.93769 23.1616C8.21904 22.3773 9.31425 22.6182 9.93723 22.4884C10.51 22.2574 11.1833 22.2068 11.7559 21.9153C12.0774 21.7547 12.4593 21.7041 12.7909 21.5237C13.1124 21.3422 13.4238 21.131 13.7254 20.9308C14.0368 20.7295 14.3483 20.5282 14.6798 20.3775C15.0416 20.2169 15.4334 20.1674 15.7851 19.976C16.0866 19.8154 16.3679 19.5844 16.6291 19.3633C17.1718 18.9112 17.5938 18.2776 17.5034 17.5439C17.4733 17.2931 17.3526 17.072 17.3526 16.8003C17.3526 16.5396 17.4029 16.2679 17.4632 16.0072C17.5134 15.7454 17.5837 15.4847 17.6139 15.2229C17.6541 14.8214 17.5637 14.5596 17.8048 14.1988C18.0158 13.8864 18.3273 13.6257 18.679 13.4849C18.9603 13.3749 19.322 13.4343 19.6134 13.4343C19.8546 13.4343 20.1661 13.2638 20.3972 13.3342C20.5379 13.3749 20.6383 13.5047 20.7991 13.5454C20.9398 13.6356 21.1207 13.6257 21.2613 13.7467Z" fill="white"/>
<path d="M75.0882 26.6981L74.9977 26.708C74.9374 26.4968 74.8068 26.3263 74.6059 26.2053C74.4149 26.0854 74.1738 26.0249 73.8824 26.0249C73.4503 26.0249 73.1086 26.1756 72.8575 26.4869C72.6164 26.7982 72.4958 27.2206 72.4958 27.7728C72.4958 28.3657 72.6164 28.8277 72.8675 29.1401C73.1188 29.4514 73.4804 29.612 73.9427 29.612C74.1436 29.612 74.3546 29.5713 74.5556 29.491C74.7666 29.4107 74.9475 29.3007 75.1182 29.1599L75.1886 29.1797L75.0479 29.6923C74.857 29.7825 74.646 29.8529 74.445 29.9035C74.2341 29.953 74.0131 29.9739 73.782 29.9739C73.0685 29.9739 72.5158 29.7825 72.124 29.4008C71.7321 29.0191 71.5311 28.4867 71.5311 27.8036C71.5311 27.1601 71.7422 26.6376 72.1742 26.246C72.5963 25.8544 73.169 25.663 73.8824 25.663C74.1035 25.663 74.3346 25.6828 74.5556 25.7334C74.7767 25.784 75.0078 25.8643 75.2289 25.9644C75.1988 26.0755 75.1585 26.1855 75.1384 26.3164C75.1183 26.4264 75.0982 26.5573 75.0882 26.6981Z" fill="white"/>
<path d="M76.4044 28.4361C76.4044 28.8981 76.4546 29.2204 76.5451 29.4107C76.6455 29.6021 76.8063 29.6923 77.0273 29.6923C77.2584 29.6923 77.4192 29.6021 77.5097 29.4107C77.6101 29.2204 77.6604 28.8981 77.6604 28.4361C77.6604 27.9741 77.6101 27.6529 77.5097 27.4615C77.4091 27.2701 77.2484 27.17 77.0273 27.17C76.8063 27.17 76.6455 27.2602 76.5451 27.4516C76.4546 27.6419 76.4044 27.9741 76.4044 28.4361ZM75.5101 28.4361C75.5101 27.9543 75.6408 27.5715 75.912 27.3108C76.1833 27.0391 76.5551 26.9093 77.0374 26.9093C77.5197 26.9093 77.9015 27.0391 78.1627 27.3108C78.424 27.5715 78.5547 27.9543 78.5547 28.446C78.5547 28.9289 78.424 29.3007 78.1527 29.5713C77.8814 29.843 77.5097 29.9739 77.0273 29.9739C76.5451 29.9739 76.1733 29.843 75.912 29.5713C75.6408 29.2897 75.5101 28.9179 75.5101 28.4361Z" fill="white"/>
<path d="M79.0872 29.8837C79.0973 29.5614 79.1074 29.2699 79.1174 29.029C79.1174 28.7881 79.1274 28.5868 79.1274 28.4262C79.1274 28.2656 79.1274 28.0643 79.1174 27.8333C79.1174 27.5924 79.1073 27.3108 79.0872 26.9797C79.1575 26.9896 79.2178 26.9896 79.2882 26.9995C79.3585 26.9995 79.4288 27.0094 79.5092 27.0094C79.5896 27.0094 79.67 27.0094 79.7303 26.9995C79.8006 26.9995 79.8609 26.9896 79.9212 26.9797V27.3812C80.0518 27.2206 80.1824 27.0996 80.3231 27.0292C80.4638 26.9588 80.6346 26.9192 80.8155 26.9192C81.0164 26.9192 81.1973 26.9698 81.338 27.06C81.4787 27.1502 81.5892 27.291 81.6595 27.4813C81.7801 27.291 81.9107 27.1502 82.0714 27.06C82.2323 26.9698 82.4131 26.9192 82.6241 26.9192C82.7748 26.9192 82.9055 26.939 83.016 26.9896C83.1366 27.0391 83.237 27.1095 83.3174 27.2107C83.3978 27.3009 83.4581 27.4318 83.4882 27.5825C83.5184 27.7332 83.5384 28.0038 83.5384 28.4064V28.7881C83.5384 28.9586 83.5384 29.1291 83.5485 29.3205C83.5485 29.5009 83.5585 29.6923 83.5686 29.8936C83.4782 29.8837 83.3978 29.8727 83.3275 29.8727C83.2571 29.8727 83.1767 29.8628 83.1164 29.8628C83.0462 29.8628 82.9757 29.8628 82.9055 29.8727C82.8351 29.8727 82.7548 29.8837 82.6744 29.8936C82.6945 29.6318 82.7045 29.381 82.7145 29.1599C82.7245 28.9388 82.7245 28.7276 82.7245 28.5263C82.7245 28.0742 82.6945 27.7728 82.6141 27.643C82.5337 27.5121 82.4131 27.4318 82.2323 27.4318C82.0513 27.4318 81.9207 27.5022 81.8503 27.643C81.7801 27.7827 81.7399 28.0346 81.7399 28.3855V29.3502C81.7399 29.4415 81.7399 29.6021 81.76 29.843C81.76 29.8727 81.76 29.8936 81.76 29.9035C81.6796 29.8936 81.5992 29.8837 81.5188 29.8837C81.4485 29.8837 81.3681 29.8727 81.3078 29.8727C81.2375 29.8727 81.1671 29.8727 81.0968 29.8837C81.0264 29.8936 80.9461 29.8936 80.8556 29.9035C80.8657 29.6725 80.8858 29.4613 80.8858 29.2501C80.8959 29.0389 80.8959 28.8387 80.8959 28.6473C80.8959 28.1149 80.8657 27.7827 80.7953 27.6529C80.725 27.5121 80.5944 27.4516 80.4135 27.4516C80.2327 27.4516 80.1121 27.522 80.0317 27.6628C79.9513 27.8036 79.9212 28.0544 79.9212 28.4064V29.3711C79.9212 29.4613 79.9313 29.6318 79.9413 29.8628C79.9413 29.8936 79.9413 29.9035 79.9413 29.9233C79.871 29.9134 79.7906 29.9035 79.7202 29.9035C79.6499 29.9035 79.5795 29.8936 79.5092 29.8936C79.4489 29.8936 79.3786 29.8936 79.3082 29.9035C79.2581 29.8727 79.1777 29.8727 79.0872 29.8837Z" fill="white"/>
<path d="M84.3525 29.8826C84.3625 29.5614 84.3726 29.2699 84.3826 29.029C84.3826 28.7881 84.3927 28.5868 84.3927 28.4262C84.3927 28.2656 84.3926 28.0643 84.3826 27.8333C84.3726 27.5924 84.3726 27.3108 84.3525 26.9797C84.4228 26.9896 84.483 26.9896 84.5534 26.9995C84.6237 26.9995 84.6941 27.0094 84.7746 27.0094C84.8549 27.0094 84.9353 27.0094 84.9955 26.9995C85.0658 26.9995 85.1262 26.9896 85.1865 26.9797V27.3812C85.3171 27.2206 85.4478 27.0996 85.5884 27.0292C85.729 26.9588 85.8999 26.9192 86.0807 26.9192C86.2817 26.9192 86.4625 26.9687 86.6032 27.06C86.7439 27.1502 86.8544 27.291 86.9247 27.4813C87.0453 27.291 87.176 27.1502 87.3368 27.06C87.4975 26.9687 87.6783 26.9192 87.8893 26.9192C88.0401 26.9192 88.1707 26.939 88.2812 26.9896C88.4018 27.0391 88.5023 27.1095 88.5826 27.2107C88.6631 27.3009 88.7233 27.4318 88.7535 27.5825C88.7836 27.7332 88.8037 28.0038 88.8037 28.4064V28.7881C88.8037 28.9586 88.8037 29.1291 88.8138 29.3205C88.8138 29.5009 88.8239 29.6923 88.8339 29.8936C88.7435 29.8826 88.6631 29.8727 88.5928 29.8727C88.5224 29.8727 88.442 29.8628 88.3817 29.8628C88.3114 29.8628 88.241 29.8628 88.1707 29.8727C88.1003 29.8727 88.02 29.8826 87.9396 29.8936C87.9597 29.6318 87.9697 29.381 87.9798 29.1599C87.9898 28.9388 87.9898 28.7276 87.9898 28.5263C87.9898 28.0742 87.9597 27.7728 87.8793 27.6419C87.7989 27.5121 87.6783 27.4318 87.4975 27.4318C87.3166 27.4318 87.186 27.5022 87.1157 27.6419C87.0453 27.7827 87.0051 28.0346 87.0051 28.3855V29.3502C87.0051 29.4415 87.0153 29.6021 87.0253 29.843C87.0253 29.8727 87.0253 29.8936 87.0253 29.9035C86.9449 29.8936 86.8644 29.8826 86.7841 29.8826C86.7137 29.8826 86.6333 29.8727 86.573 29.8727C86.5028 29.8727 86.4324 29.8727 86.3621 29.8826C86.2917 29.8936 86.2114 29.8936 86.121 29.9035C86.131 29.6725 86.1511 29.4613 86.1511 29.2501C86.1611 29.0389 86.1611 28.8376 86.1611 28.6473C86.1611 28.1149 86.131 27.7827 86.0607 27.6529C85.9903 27.5121 85.8597 27.4516 85.6788 27.4516C85.4979 27.4516 85.3774 27.522 85.2969 27.6628C85.2166 27.8036 85.1865 28.0544 85.1865 28.4064V29.3711C85.1865 29.4613 85.1965 29.6318 85.2065 29.8628C85.2065 29.8936 85.2065 29.9035 85.2065 29.9233C85.1362 29.9134 85.0558 29.9035 84.9855 29.9035C84.9151 29.9035 84.8448 29.8936 84.7746 29.8936C84.7143 29.8936 84.6439 29.8936 84.5736 29.9035C84.5133 29.8727 84.4429 29.8727 84.3525 29.8826Z" fill="white"/>
<path d="M90.3011 28.4361C90.3011 28.8981 90.3514 29.2204 90.4418 29.4107C90.5422 29.6021 90.703 29.6923 90.9241 29.6923C91.1552 29.6923 91.3159 29.6021 91.4064 29.4107C91.4968 29.2204 91.5571 28.8981 91.5571 28.4361C91.5571 27.9741 91.5068 27.6529 91.4064 27.4615C91.3059 27.2701 91.1451 27.17 90.9241 27.17C90.703 27.17 90.5422 27.2602 90.4418 27.4516C90.3514 27.6419 90.3011 27.9741 90.3011 28.4361ZM89.4169 28.4361C89.4169 27.9543 89.5475 27.5715 89.8187 27.3108C90.0901 27.0391 90.4618 26.9093 90.9441 26.9093C91.4264 26.9093 91.7982 27.0391 92.0695 27.3108C92.3408 27.5825 92.4614 27.9543 92.4614 28.446C92.4614 28.9289 92.3308 29.3007 92.0595 29.5713C91.7882 29.843 91.4164 29.9739 90.934 29.9739C90.4518 29.9739 90.08 29.843 89.8187 29.5713C89.5475 29.2897 89.4169 28.9179 89.4169 28.4361Z" fill="white"/>
<path d="M92.994 29.8837C93.0041 29.612 93.0242 29.3612 93.0242 29.1192C93.0242 28.8783 93.0343 28.6572 93.0343 28.4361C93.0343 28.1952 93.0342 27.9444 93.0242 27.7024C93.0141 27.4615 93.0041 27.2206 92.994 26.9797C93.0543 26.9896 93.1246 26.9896 93.195 26.9995C93.2653 26.9995 93.3357 27.0094 93.4161 27.0094C93.4964 27.0094 93.5668 27.0094 93.6371 26.9995C93.7074 26.9995 93.7678 26.9896 93.828 26.9797V27.401C93.9486 27.2404 94.0893 27.1095 94.2501 27.0391C94.4008 26.9588 94.5816 26.9192 94.7725 26.9192C94.9232 26.9192 95.0539 26.939 95.1846 26.9896C95.3051 27.0391 95.4055 27.1095 95.496 27.2107C95.5664 27.291 95.6165 27.3911 95.6367 27.5022C95.6668 27.6122 95.6768 27.8135 95.6768 28.0951C95.6768 28.1347 95.6768 28.2348 95.6768 28.4064C95.6768 28.5769 95.6768 28.7276 95.6768 28.8486C95.6768 29.0389 95.6768 29.2204 95.6869 29.381C95.6969 29.5515 95.707 29.7121 95.7171 29.8727C95.6367 29.8628 95.5462 29.8529 95.4758 29.8529C95.4056 29.8529 95.3252 29.843 95.2649 29.843C95.1946 29.843 95.1242 29.843 95.0539 29.8529C94.9836 29.8529 94.9032 29.8628 94.8228 29.8727C94.8329 29.7022 94.8429 29.491 94.8529 29.26C94.8629 29.0191 94.8629 28.7573 94.8629 28.4559C94.8629 28.0148 94.8329 27.7332 94.7625 27.6023C94.6922 27.4714 94.5615 27.4109 94.3807 27.4109C94.1998 27.4109 94.0692 27.4923 93.9887 27.643C93.9084 27.7937 93.8682 28.0544 93.8682 28.4163C93.8682 28.5868 93.8682 28.7881 93.8783 29.0389C93.8883 29.2798 93.8883 29.5614 93.8983 29.8837C93.828 29.8727 93.7476 29.8628 93.6773 29.8628C93.6069 29.8628 93.5366 29.8529 93.4662 29.8529C93.396 29.8529 93.3257 29.8529 93.2553 29.8628C93.1548 29.8727 93.0744 29.8727 92.994 29.8837Z" fill="white"/>
<path d="M97.3347 29.8837C97.1639 29.2204 96.9629 28.5362 96.7619 27.8432C96.551 27.1502 96.3198 26.4473 96.0786 25.7334C96.159 25.7433 96.2394 25.7433 96.3198 25.7532C96.4001 25.7532 96.4906 25.7532 96.5911 25.7532C96.6915 25.7532 96.782 25.7532 96.8624 25.7532C96.9428 25.7532 97.0231 25.7433 97.1035 25.7334C97.224 26.2361 97.3447 26.7487 97.4853 27.2503C97.626 27.753 97.7667 28.2557 97.9174 28.7573C98.1083 28.2051 98.2892 27.6826 98.46 27.1799C98.6308 26.6882 98.7915 26.1954 98.9524 25.7235C99.0026 25.7334 99.0529 25.7334 99.0931 25.7433C99.1433 25.7433 99.1935 25.7433 99.2538 25.7433C99.314 25.7433 99.3643 25.7433 99.4145 25.7433C99.4647 25.7433 99.515 25.7334 99.5653 25.7235C99.706 26.2053 99.8567 26.6882 100.028 27.1898C100.188 27.6826 100.359 28.1952 100.54 28.7078C100.711 28.2249 100.872 27.7332 101.012 27.2305C101.163 26.7377 101.293 26.2262 101.424 25.7235C101.464 25.7334 101.515 25.7334 101.555 25.7433C101.595 25.7433 101.645 25.7433 101.705 25.7433C101.756 25.7433 101.806 25.7433 101.856 25.7433C101.896 25.7433 101.947 25.7334 101.987 25.7235C101.776 26.3362 101.555 26.9896 101.324 27.6727C101.103 28.3657 100.861 29.0895 100.62 29.8628C100.56 29.8529 100.51 29.843 100.46 29.843C100.409 29.843 100.359 29.8331 100.309 29.8331C100.269 29.8331 100.218 29.8331 100.158 29.843C100.108 29.843 100.048 29.8529 99.9872 29.8628C99.8466 29.3909 99.696 28.919 99.5351 28.4262C99.3744 27.9444 99.1935 27.4417 99.0126 26.9291C98.8318 27.3911 98.6509 27.863 98.48 28.3558C98.3093 28.8486 98.1385 29.3502 97.9676 29.8628C97.9174 29.8529 97.8571 29.843 97.8068 29.843C97.7567 29.843 97.7064 29.8331 97.6561 29.8331C97.6059 29.8331 97.5557 29.8331 97.5054 29.843C97.4451 29.8727 97.395 29.8727 97.3347 29.8837Z" fill="white"/>
<path d="M102.992 28.1446H104.016C104.016 28.1248 104.016 28.094 104.016 28.0643C104.016 28.0346 104.016 28.0137 104.016 28.0038C104.016 27.7332 103.976 27.522 103.896 27.3812C103.815 27.2404 103.695 27.17 103.544 27.17C103.363 27.17 103.223 27.2503 103.132 27.4109C103.032 27.5715 102.982 27.8036 102.982 28.094V28.1446H102.992ZM102.992 28.446C102.992 28.798 103.072 29.0796 103.243 29.2798C103.414 29.491 103.635 29.5911 103.916 29.5911C104.057 29.5911 104.187 29.5713 104.318 29.5218C104.448 29.4712 104.569 29.4008 104.69 29.3106L104.75 29.3502L104.619 29.6923C104.489 29.7825 104.348 29.8529 104.177 29.9035C104.006 29.953 103.815 29.9739 103.625 29.9739C103.152 29.9739 102.781 29.8331 102.519 29.5515C102.258 29.2699 102.117 28.8882 102.117 28.3954C102.117 27.9543 102.248 27.5924 102.519 27.3207C102.791 27.049 103.142 26.9093 103.574 26.9093C103.986 26.9093 104.308 27.0292 104.529 27.2602C104.75 27.4912 104.86 27.8234 104.86 28.2557C104.86 28.3052 104.86 28.3459 104.86 28.3756C104.86 28.4064 104.86 28.4262 104.85 28.446H102.992Z" fill="white"/>
<path d="M106.84 28.2854C106.559 28.3459 106.358 28.4361 106.227 28.5472C106.106 28.6671 106.036 28.8277 106.036 29.029C106.036 29.1995 106.066 29.3304 106.126 29.4206C106.187 29.5119 106.287 29.5515 106.408 29.5515C106.538 29.5515 106.639 29.5009 106.719 29.4107C106.79 29.3106 106.83 29.1797 106.83 28.9894V28.2854H106.84ZM106.87 29.5009C106.78 29.6516 106.669 29.7627 106.528 29.843C106.388 29.9233 106.227 29.964 106.046 29.964C105.795 29.964 105.594 29.8826 105.443 29.7319C105.303 29.5812 105.232 29.381 105.232 29.1192C105.232 28.9289 105.282 28.7683 105.383 28.6473C105.483 28.5164 105.644 28.4262 105.865 28.3459C105.936 28.3261 106.036 28.2854 106.177 28.2458C106.498 28.1545 106.709 28.0643 106.83 27.984C106.83 27.9741 106.83 27.9543 106.83 27.9444C106.83 27.9334 106.83 27.9037 106.83 27.8839C106.83 27.7024 106.78 27.5517 106.669 27.4417C106.559 27.3306 106.428 27.2811 106.247 27.2811C106.106 27.2811 105.986 27.3207 105.875 27.3911C105.765 27.4714 105.654 27.5924 105.564 27.7431C105.534 27.6529 105.514 27.5726 105.494 27.5121C105.473 27.4516 105.453 27.401 105.433 27.3515C105.614 27.1898 105.795 27.0798 105.966 26.9995C106.147 26.9291 106.327 26.8884 106.518 26.8884C106.88 26.8884 107.161 26.9687 107.352 27.1403C107.553 27.3108 107.644 27.5517 107.644 27.863V27.8938L107.624 28.9487V29.0697C107.624 29.3106 107.654 29.4712 107.704 29.5416C107.754 29.612 107.865 29.6516 108.025 29.6516H108.046V29.8023C107.945 29.843 107.835 29.8826 107.724 29.9035C107.614 29.9233 107.513 29.9332 107.413 29.9332C107.262 29.9332 107.151 29.8936 107.051 29.8232C106.96 29.7528 106.9 29.6417 106.87 29.5009Z" fill="white"/>
<path d="M108.457 29.8826C108.467 29.5416 108.488 29.1896 108.488 28.8178C108.498 28.446 108.498 28.0445 108.498 27.6221C108.498 27.17 108.498 26.7586 108.488 26.3868C108.478 26.015 108.467 25.663 108.457 25.3319C108.558 25.3418 108.638 25.3616 108.709 25.3616C108.779 25.3715 108.849 25.3715 108.91 25.3715C108.97 25.3715 109.04 25.3715 109.121 25.3616C109.191 25.3517 109.271 25.3418 109.362 25.3319C109.352 25.6729 109.332 26.0249 109.332 26.3967C109.322 26.7685 109.322 27.17 109.322 27.5924C109.322 28.0445 109.322 28.4559 109.332 28.8277C109.342 29.1995 109.352 29.5515 109.362 29.8826C109.291 29.8727 109.221 29.8628 109.151 29.8529C109.08 29.843 109 29.843 108.92 29.843C108.839 29.843 108.759 29.843 108.689 29.8529C108.608 29.8628 108.538 29.8727 108.457 29.8826Z" fill="white"/>
<path d="M110.196 27.3207H110.086C110.005 27.3207 109.945 27.3207 109.894 27.3207C109.854 27.3207 109.814 27.3207 109.774 27.3207C109.774 27.3009 109.784 27.2811 109.784 27.2602C109.784 27.2404 109.784 27.2107 109.784 27.17C109.784 27.1304 109.784 27.0897 109.784 27.0699C109.784 27.0501 109.784 27.0292 109.784 27.0094C109.794 27.0094 109.804 27.0094 109.824 27.0094C109.965 27.0193 110.065 27.0292 110.135 27.0292H110.206C110.206 26.9995 110.206 26.9687 110.206 26.939C110.206 26.9093 110.206 26.8587 110.206 26.7982C110.206 26.7179 110.206 26.6376 110.206 26.5474C110.206 26.4572 110.196 26.3461 110.186 26.2152C110.327 26.1657 110.467 26.1052 110.597 26.0447C110.738 25.9842 110.869 25.9237 111 25.8643L111.06 25.9138C111.05 26.1448 111.039 26.3362 111.039 26.4968C111.03 26.6574 111.03 26.7685 111.03 26.8488V27.0391C111.141 27.0391 111.241 27.0391 111.341 27.0391C111.432 27.0391 111.532 27.0292 111.622 27.0193C111.613 27.06 111.613 27.0996 111.613 27.1194C111.613 27.1403 111.613 27.1601 111.613 27.1799C111.613 27.2107 111.613 27.2602 111.622 27.3207C111.622 27.3306 111.622 27.3306 111.622 27.3405C111.573 27.3405 111.512 27.3405 111.432 27.3405C111.352 27.3405 111.221 27.3405 111.02 27.3405C111.02 27.3713 111.02 27.4208 111.02 27.4813C111.01 27.9037 111 28.1952 111 28.3756V28.6165C111 29.0796 111.02 29.3711 111.07 29.4811C111.11 29.5922 111.201 29.6516 111.331 29.6516C111.401 29.6516 111.512 29.6318 111.683 29.5922V29.8122C111.552 29.8727 111.432 29.9134 111.311 29.9431C111.201 29.9739 111.09 29.9838 110.98 29.9838C110.718 29.9838 110.528 29.9134 110.387 29.7726C110.246 29.6318 110.186 29.4305 110.186 29.1698C110.186 29.1599 110.186 28.9883 110.196 28.6473C110.206 28.3151 110.206 27.984 110.206 27.6529V27.3207H110.196Z" fill="white"/>
<path d="M112.065 29.8826C112.084 29.6725 112.094 29.4107 112.104 29.0895C112.115 28.7782 112.115 28.3151 112.115 27.7233C112.115 27.0897 112.115 26.5969 112.104 26.246C112.094 25.894 112.084 25.5926 112.065 25.3319C112.145 25.3418 112.225 25.3616 112.296 25.3616C112.366 25.3715 112.436 25.3715 112.507 25.3715C112.577 25.3715 112.648 25.3715 112.718 25.3616C112.788 25.3517 112.869 25.3418 112.949 25.3319C112.929 25.5024 112.918 25.6729 112.899 25.8643C112.889 26.0546 112.889 26.2559 112.889 26.477V27.4208C112.999 27.2503 113.129 27.1304 113.29 27.0391C113.451 26.9588 113.622 26.9093 113.822 26.9093C113.974 26.9093 114.104 26.9291 114.225 26.9797C114.346 27.0292 114.446 27.0996 114.526 27.2008C114.597 27.2811 114.646 27.3812 114.677 27.5022C114.707 27.6221 114.717 27.8135 114.717 28.0841C114.717 28.1248 114.717 28.2249 114.717 28.3965C114.717 28.567 114.717 28.7177 114.717 28.8376C114.717 29.0587 114.717 29.2501 114.728 29.4107C114.728 29.5713 114.738 29.722 114.748 29.8628C114.667 29.8529 114.587 29.843 114.517 29.843C114.436 29.843 114.366 29.8331 114.305 29.8331C114.235 29.8331 114.165 29.8331 114.094 29.843C114.024 29.843 113.943 29.8529 113.863 29.8628C113.873 29.6923 113.883 29.4811 113.893 29.2501C113.904 29.0092 113.904 28.7474 113.904 28.446C113.904 28.0038 113.873 27.7233 113.803 27.5924C113.732 27.4615 113.602 27.401 113.421 27.401C113.241 27.401 113.11 27.4813 113.02 27.632C112.939 27.7827 112.899 28.0445 112.899 28.4064C112.899 28.5967 112.898 28.8178 112.908 29.0587C112.918 29.3106 112.929 29.5713 112.939 29.8628C112.859 29.8529 112.779 29.843 112.708 29.843C112.638 29.843 112.567 29.8331 112.497 29.8331C112.427 29.8331 112.356 29.8331 112.286 29.843C112.215 29.8727 112.145 29.8727 112.065 29.8826Z" fill="white"/>
<path d="M67.1608 21.4126C66.8493 21.0617 66.5178 20.8505 66.3469 20.7603C66.3068 20.7394 66.2665 20.7196 66.2264 20.6998C66.0254 20.5887 65.8446 20.438 65.6236 20.3775C65.2919 20.2972 64.9402 20.3379 64.6087 20.2675C64.1364 20.1674 63.6741 20.0563 63.2019 19.976C62.6091 19.8858 61.9962 19.866 61.4234 20.0365C61.1622 20.1168 60.8508 20.2169 60.6598 20.4281C60.4991 20.5986 60.5091 20.7999 60.4588 21.0111C60.4086 21.2124 60.3886 21.4126 60.3886 21.6238C60.3784 22.3872 60.6798 23.1407 61.0516 23.7941C61.2526 24.1461 61.4937 24.4673 61.755 24.7786C61.9962 25.0602 62.2775 25.432 62.589 25.6432C62.8905 25.8445 63.1015 25.9952 63.2923 26.3065C63.433 26.5276 63.443 26.5881 63.7043 26.6882C64.1264 26.8488 64.5986 26.8488 65.0407 26.8785C65.6134 26.9192 66.2365 26.9291 66.8091 26.829C67.2412 26.7487 67.3216 26.4473 67.6833 26.2361C68.015 26.0447 68.1757 26.015 68.3364 25.6432C69.0096 23.9855 68.1657 22.5885 67.1608 21.4126Z" fill="white"/>
<path d="M76.0331 13.8765H78.1934C77.9523 13.585 77.7011 13.3034 77.4498 13.0526C77.0178 13.3837 76.5355 13.6752 76.0331 13.8765ZM76.9173 9.69648C76.6259 9.40498 76.3145 9.12338 76.0331 8.89238L76.2441 8.48098C76.5958 8.65148 76.9576 8.87258 77.3394 9.11348C77.5202 8.82198 77.6911 8.52058 77.8317 8.24998L78.7662 8.77248C78.5852 9.05408 78.3441 9.34447 78.0627 9.63597C78.3541 9.85707 78.6255 10.0782 78.8868 10.3191L78.1533 11.0836C77.9723 10.8416 77.7312 10.5402 77.4498 10.2388C76.9877 10.6315 76.4852 10.9824 76.003 11.2343L75.7517 10.8823C76.1938 10.5402 76.5858 10.1288 76.9173 9.69648ZM72.657 16.368H71.421V13.8765H72.657C72.6169 12.2793 72.5565 10.6711 72.4761 9.07389L73.5814 9.31478C74.114 9.07388 74.546 8.75158 75.1087 8.21918L75.8422 9.00347C75.2997 9.28507 74.3952 9.63597 73.6116 9.75697C73.6116 10.0078 73.6216 10.2597 73.6417 10.5105H75.5005V11.143H73.6619C73.6719 11.5049 73.6719 11.8866 73.6919 12.2485H75.6011V12.8821H73.712C73.7221 13.2231 73.7422 13.5355 73.7422 13.8765H75.812L75.6412 13.5146C76.1135 13.2539 76.5355 12.9217 76.8872 12.5499C76.6058 12.309 76.3144 12.0879 75.9929 11.8668L76.204 11.4752C76.6159 11.6556 76.9877 11.8272 77.3494 12.0175C77.5905 11.726 77.8016 11.4048 77.9924 11.0627L78.8566 11.6765C78.6456 11.9273 78.3944 12.199 78.103 12.4795C78.4145 12.6907 78.7059 12.9118 78.9973 13.1835L78.3542 13.8864H80.8662C80.8963 13.5652 80.9064 13.2539 80.9265 12.9316H79.0173V12.2991H80.9466C80.9566 11.968 80.9868 11.616 81.0069 11.2739H79.1179V10.6414H81.0269L81.0672 9.56558H79.0173V8.93308H80.9466L81.2078 8.67127L82.2327 8.92318C82.1322 10.5512 82.0519 12.2386 81.9212 13.8765H83.1973V16.3284H81.9614V14.5101H72.647V16.368H72.657ZM83.348 18.3678H78.2637V19.976C78.2637 21.2421 77.1584 21.9648 74.6766 20.5084L74.8073 20.0365C76.8369 20.4886 77.0077 20.2774 77.0077 19.4436V18.3678H71.3206V17.7353H77.0077V16.7299L77.9422 16.8707C78.4647 16.5792 78.9772 16.1678 79.3891 15.8158H73.4609V15.1833H79.7107L80.0925 15.0117L81.2279 15.9269C80.3337 16.5594 79.1279 17.0522 78.2738 17.303V17.7353H83.358V18.3678H83.348Z" fill="white"/>
<path d="M95.8774 10.8317L95.2042 11.9075C94.6717 11.4444 93.6369 10.7008 92.9937 10.329L93.1746 9.87691C93.8277 10.0078 94.9731 10.329 95.8774 10.8317ZM98.098 8.93311V14.6102H96.8923V11.9174C95.6866 12.7809 94.1191 13.7258 93.1946 14.0778L92.5917 12.8612C93.8076 12.5807 95.3952 12.078 96.8923 11.3641V9.5557H92.8831V8.93311H98.098ZM96.0281 18.4679H89.5975V19.9353H96.0281V18.4679ZM96.0281 16.4692H89.5975V17.8453H96.0281V16.4692ZM92.9134 15.8356H97.2841V21.3323H96.0181V20.5788H89.5874V21.3928H88.3214V15.8455H92.1396C92.3908 15.2328 92.5617 14.6399 92.6721 14.0569L94.0287 14.5904C93.6267 15.092 93.2851 15.5045 92.9134 15.8356ZM90.1401 10.8625L89.4569 11.9779C88.9142 11.4851 87.8995 10.8119 87.2263 10.3796L87.4071 9.91761C88.1306 10.0683 89.1855 10.3697 90.1401 10.8625ZM91.1248 12.54C89.8788 13.4046 88.1105 14.3187 87.2162 14.6707L86.6535 13.475C87.9396 13.123 89.6176 12.6104 91.1248 11.9471V9.5557H86.7841V8.93311H92.3305V14.2879H91.1248V12.54Z" fill="white"/>
<path d="M71.9334 33.209V37.5397H74.1942V36.8269H72.8378V33.209H71.9334Z" fill="#FFF100"/>
<path d="M77.0978 33.209V37.5397H79.5092V36.8764H78.0121V35.6103H79.3485V34.947H78.0121V33.8822H79.459V33.209H77.0978Z" fill="#FFF100"/>
<path d="M84.0308 34.0428L83.6088 35.9117H84.473L84.0308 34.0428ZM82.2824 37.5397L83.4782 33.209H84.6739L85.8495 37.5397H84.895L84.6538 36.5849H83.4178L83.1767 37.5397H82.2824Z" fill="#FFF100"/>
<path d="M89.6783 35.0878H90.0802C90.4419 35.0878 90.5425 34.7259 90.5425 34.4553C90.5425 34.0428 90.3716 33.8822 90.0802 33.8822H89.6783V35.0878ZM89.6783 37.5397H88.774V33.209H90.4419C91.065 33.209 91.4568 33.6006 91.4568 34.3442C91.4568 34.8964 91.2458 35.3089 90.653 35.409V35.4189C90.854 35.4398 91.4366 35.4893 91.4366 36.2637C91.4366 36.5343 91.4568 37.3582 91.5372 37.5397H90.653C90.5323 37.2779 90.5625 36.9864 90.5625 36.696C90.5625 36.1834 90.6128 35.7412 89.9195 35.7412H89.6883V37.5397H89.6783Z" fill="#FFF100"/>
<path d="M94.6516 37.5397V33.209H95.8674L97.023 36.2131H97.0329V33.209H97.877V37.5397H96.6913L95.5057 34.375H95.4956V37.5397H94.6516Z" fill="#FFF100"/>
<path d="M102.057 33.2189H101.153V37.5496H102.057V33.2189Z" fill="#FFF100"/>
<path d="M105.343 37.5397V33.209H106.569L107.724 36.2131H107.734V33.209H108.578V37.5397H107.382L106.207 34.375H106.187V37.5397H105.343Z" fill="#FFF100"/>
<path d="M113.834 34.5456C113.843 34.143 113.773 33.7921 113.291 33.7921C112.728 33.7921 112.728 34.5555 112.728 35.3893C112.728 36.7456 112.859 36.9876 113.372 36.9876C113.522 36.9876 113.683 36.9469 113.824 36.9062V35.9426H113.331V35.2793H114.728V37.4694C114.487 37.52 113.863 37.6102 113.501 37.6102C111.984 37.6102 111.804 36.9766 111.804 35.3387C111.804 34.2541 111.854 33.1387 113.331 33.1387C114.215 33.1387 114.767 33.6414 114.718 34.5456H113.834Z" fill="#FFF100"/>
</svg>
