<svg width="120" height="44" viewBox="0 0 120 44" fill="none" xmlns="http://www.w3.org/2000/svg">
<path d="M120 0H0V44H120V0Z" fill="#D80C18"/>
<path d="M29.0444 6.6783C29.6823 8.52852 27.0968 9.13625 25.8957 9.62244C25.4817 9.79125 25.0678 9.96682 24.6606 10.1491C24.3824 10.2774 24.1245 10.453 23.8395 10.5678C23.5681 10.6758 23.2763 10.7164 22.9912 10.7771C22.3534 10.9189 21.7155 11.0743 21.0844 11.2431C19.8154 11.5807 18.56 11.9656 17.2978 12.3302C16.5785 12.5328 15.8591 12.7354 15.1263 12.911C14.3594 13.1 13.579 12.8975 12.914 12.5058C12.2965 12.1412 12.2558 11.5672 11.9708 10.973C11.8283 10.6691 11.8486 10.345 12.1268 10.1086C12.2015 10.0479 12.5136 10.0681 12.6154 10.0479C12.7783 10.0276 12.9479 10.0006 13.1108 9.97358C13.4365 9.91955 13.7623 9.85878 14.088 9.81151C14.4137 9.76424 14.7462 9.72373 15.072 9.70347C15.4316 9.68321 15.737 9.76424 16.0559 9.55491C16.3952 9.33208 16.721 9.10924 17.0942 8.94043C17.8135 8.6163 18.5803 8.44073 19.3539 8.31919C19.6254 8.27867 19.8968 8.23816 20.1683 8.20439C20.3108 8.18413 20.4668 8.21114 20.6026 8.17063C20.7654 8.12336 20.8129 8.03558 20.9487 7.93429C21.2269 7.72496 21.6069 7.7182 21.8851 7.50887C22.6655 6.88763 23.7106 6.65129 24.3417 5.86799C24.7963 5.49659 25.3663 5.34128 25.9432 5.31427C26.5471 5.28051 27.1646 5.24 27.7143 5.53711C28.2233 5.81397 28.8476 6.07732 29.0444 6.67155" fill="white"/>
<path d="M50.4474 16.2805C50.5288 15.9834 50.5967 15.6728 50.5967 15.3689C50.5967 15.0516 50.4067 14.768 50.3863 14.4573C50.366 14.2007 50.5085 13.9306 50.2099 13.7888C49.5856 13.3499 49.0087 14.0522 48.3844 14.1535C47.8687 14.4101 47.4887 14.8557 47.0544 15.2204C46.7558 15.477 46.3758 15.612 46.0568 15.8349C45.7515 16.0442 45.5072 16.3413 45.2086 16.5642C44.5639 17.0436 43.8107 17.3542 43.1389 17.7999C42.5756 18.178 41.2931 18.0295 40.6687 17.9079C39.5355 17.6918 38.5447 17.1314 37.4929 16.706C37.0314 16.5236 36.5496 16.3751 36.1289 16.1117C35.6471 15.8079 35.3824 15.2609 34.8938 14.9435C34.4595 14.6532 34.0252 14.3966 34.1542 13.8023C34.5478 13.3904 35.0974 13.3094 35.6132 13.1811C37.4115 12.8435 39.3726 13.1001 41.1234 12.5058C42.1142 12.2492 43.1592 12.0129 44.1228 11.6753C44.3739 11.5875 44.6453 11.4592 44.9168 11.3714C45.2086 11.2701 45.3918 11.054 45.6632 10.919C46.2672 10.6219 46.8983 10.7974 47.5023 10.6286C48.3573 10.399 49.1988 10.1357 50.0402 9.86556C50.5288 9.71025 51.0038 9.50768 51.506 9.39288C51.9064 9.29834 52.3203 9.31185 52.6732 9.08226C53.535 8.5353 54.6208 8.7784 55.5301 8.37324C56.2969 8.02886 57.1655 7.69122 57.9799 7.4954C58.4074 7.38736 58.8485 7.33334 59.2828 7.39411C60.0224 7.4954 60.7893 7.67097 61.5154 7.82628C62.1397 7.95458 62.7708 8.04911 63.334 8.37324C63.6394 8.54881 63.8837 8.81216 64.033 9.12953C64.0737 9.53469 63.938 9.91959 63.7615 10.2775C63.6733 10.4598 63.5715 10.6354 63.4697 10.8109C63.1576 11.3781 62.6486 11.5064 62.0515 11.6685C61.4611 11.8238 60.8436 11.8913 60.2396 11.7495C59.9207 11.6753 59.5881 11.52 59.3371 11.3106C58.2988 10.6489 57.0298 10.8379 55.9033 11.1283C55.7473 11.1688 55.5912 11.2093 55.4419 11.2634C55.279 11.3174 55.1297 11.3444 54.9872 11.4524C54.8583 11.5537 54.7226 11.6415 54.5801 11.7158C54.2 11.9184 53.8743 12.0872 53.8811 12.5531C53.8811 13.1001 53.7861 13.7281 54.01 14.248C54.5054 15.2879 53.854 16.3278 54.3222 17.3677C54.5326 18.7723 54.9465 20.744 54.899 22.3511C54.899 24.5862 55.0822 27.3616 55.4487 29.5157C55.5301 30.0153 55.693 30.5015 55.8083 30.9877C55.883 31.2916 55.9033 31.609 55.9712 31.9196C56.1273 32.5813 56.2834 33.0608 56.2562 33.7495C56.2223 34.5328 56.1341 35.3161 56.0187 36.0927C55.8966 36.9503 55.6251 37.7876 54.7701 38.1657C53.9286 39.0841 52.4425 38.9085 51.3771 38.5574C50.9156 38.4088 50.3456 37.7538 50.1149 37.3419C49.9724 37.0921 49.9927 36.7882 49.9316 36.5114C49.762 35.7956 49.4702 35.1203 49.7145 34.3775C50.237 28.4015 50.7595 22.7428 50.4474 16.7937" fill="white"/>
<path d="M21.2608 13.7415C21.7833 14.3155 22.0141 14.9908 22.333 15.666C22.5976 15.9564 22.9369 15.9429 23.283 15.8146C23.5816 15.7065 23.9141 15.6525 24.172 15.4499C24.4231 15.2474 24.6335 14.9773 24.8777 14.7612C25.4071 14.2952 25.9703 13.8563 26.6489 13.6335C27.0561 13.4984 27.47 13.4512 27.8907 13.4849C28.5693 13.7415 29.4312 13.7213 29.7705 14.4168C30.0826 14.8557 30.008 15.3757 29.8451 15.8483C29.2479 17.0706 27.755 17.5095 26.71 18.2928C25.8753 18.7317 24.7556 19.0423 24.3349 19.9809C24.3077 21.4598 25.5088 22.655 26.4521 23.5126C27.8907 24.9914 29.2208 27.2535 31.148 28.1381C31.718 28.4014 32.1931 28.9349 32.6749 29.3198C32.9395 29.5359 33.2042 29.7385 33.496 29.9073C33.8217 30.0963 34.1814 30.1639 34.5003 30.38C34.8193 30.596 35.2264 30.6906 35.4843 30.9944C35.5861 31.116 35.7557 31.1362 35.8915 31.2105C36.1765 31.3591 36.3597 31.663 36.6922 31.7237C36.8754 31.7575 37.0315 31.7237 37.2012 31.798C37.3708 31.8723 37.5269 32.0208 37.683 32.1221C38.4091 32.5948 39.1555 33.0472 39.9766 33.3443C40.2888 33.4591 40.6349 33.4794 40.947 33.5942C41.2524 33.709 41.4424 33.9453 41.7003 34.1277C42.1414 34.4383 42.7453 34.7151 42.9625 35.2486C43.0982 35.5997 42.915 36.1197 42.691 36.3965C42.3721 36.7882 41.7817 36.8895 41.3067 36.9637C40.8249 37.038 40.3363 37.2609 39.8545 37.3149C39.5898 37.3419 39.3184 37.3419 39.0537 37.3622C38.4837 37.4027 37.9069 37.4634 37.3369 37.5242C36.1832 37.639 35.0228 37.7606 33.8624 37.7403C33.2313 37.7268 32.4849 37.8213 31.9081 37.4972C31.1277 37.0515 30.4151 36.3763 29.6958 35.8293C28.7526 35.1135 28.1079 34.1209 27.4361 33.1553C26.7303 32.1424 26.0517 31.1092 25.346 30.1031C24.7692 29.286 24.1991 28.3542 23.4188 27.7194C23.1405 27.4966 22.9641 27.1792 22.6859 26.9496C22.4484 26.7471 22.238 26.531 22.0344 26.2946C21.6137 25.8219 21.1658 25.4033 20.5076 25.3425C20.2633 25.7139 20.0868 26.1258 19.9918 26.558C19.924 26.8483 19.9375 27.1522 19.89 27.4493C19.8493 27.6924 19.7543 27.9288 19.7136 28.1786C19.6186 28.7121 19.605 29.2793 19.3336 29.7655C19.1707 30.0558 19.0757 30.2922 19.0011 30.623C18.9264 30.9472 18.7636 31.2916 18.6346 31.5954C18.56 31.771 18.4446 31.9195 18.37 32.0884C18.2275 32.399 18.1528 32.7299 17.9899 33.0405C17.8067 33.3849 17.6031 33.7225 17.386 34.0466C16.9449 34.7016 16.4427 35.3094 15.8931 35.8766C15.5877 36.194 15.262 36.4978 14.9295 36.7882C14.6716 37.0178 14.4476 37.2744 14.1423 37.4499C13.8369 37.6323 13.484 37.6998 13.1515 37.8078C12.4322 38.0307 11.7875 38.3548 11.0207 38.3885C10.566 38.4088 10.125 38.2805 9.72458 38.0644C9.55493 37.9699 9.25635 37.9834 9.06634 37.9159C8.8424 37.8348 8.61846 37.7133 8.42846 37.5715C8.2113 37.4094 7.98736 37.2271 7.8245 37.011C7.73628 36.8895 7.65485 36.7544 7.63449 36.6059C7.58699 36.2885 7.64806 36.1872 7.44448 35.9171C7.18661 35.5727 7.32912 35.3431 7.24769 34.9717C7.21376 34.7962 7.12554 34.6206 7.11197 34.445C7.08482 34.1479 7.34269 33.9116 7.50556 33.6955C7.68878 33.4524 7.85164 33.1823 8.15701 33.081C8.50989 32.9662 8.99848 32.9797 9.35814 33.0472C9.56172 33.0878 9.75851 33.162 9.93495 33.2701C10.22 33.4456 10.3489 33.709 10.7086 33.4997C10.98 33.3444 11.1361 33.054 11.3668 32.8514C11.5432 32.7029 11.6111 32.4463 11.7875 32.2774C11.9843 32.0884 12.1675 31.8858 12.3372 31.6697C12.6765 31.224 12.9344 30.7243 13.1108 30.1909C14.0541 29.205 14.1558 27.8005 13.7894 26.4499C12.8258 26.3757 11.8079 26.8686 10.79 26.531C10.1114 26.038 9.12063 25.7814 8.78133 25.0251C8.31309 24.5322 7.9195 23.911 7.84486 23.2087C8.12987 22.4321 9.2292 22.6617 9.85352 22.5334C10.4303 22.2971 11.1089 22.2498 11.679 21.9595C12.0047 21.7974 12.3847 21.7501 12.7172 21.5678C13.0429 21.3922 13.3483 21.1829 13.6605 20.9803C13.9658 20.7777 14.2848 20.5819 14.6173 20.4266C14.977 20.2645 15.3773 20.2105 15.7302 20.0215C16.0288 19.8594 16.307 19.6298 16.5717 19.4137C17.1213 18.9613 17.5421 18.3266 17.4471 17.5905C17.4199 17.3407 17.2978 17.1178 17.2978 16.8477C17.2978 16.5776 17.3521 16.3143 17.4063 16.0577C17.4606 15.7943 17.5217 15.5377 17.5556 15.2744C17.6031 14.876 17.5014 14.6059 17.7389 14.2547C17.9492 13.9441 18.2682 13.6808 18.621 13.5457C18.9061 13.4377 19.2657 13.4917 19.5643 13.4917C19.8086 13.4917 20.114 13.3229 20.3515 13.3904C20.494 13.4309 20.5958 13.5592 20.7586 13.5997C20.9351 13.6402 21.1115 13.6335 21.2608 13.7483" fill="white"/>
<path d="M75.3589 26.6998L75.2707 26.7133C75.2028 26.4972 75.0739 26.3284 74.8838 26.2136C74.6871 26.0921 74.4495 26.0313 74.1578 26.0313C73.7167 26.0313 73.3774 26.1866 73.1331 26.4905C72.8888 26.7944 72.7666 27.2265 72.7666 27.7802C72.7666 28.3745 72.8888 28.8336 73.1398 29.1443C73.3909 29.4549 73.7506 29.6102 74.2256 29.6102C74.4292 29.6102 74.6396 29.5697 74.8431 29.4954C75.0535 29.4144 75.2367 29.3063 75.4064 29.1645L75.481 29.1848L75.3385 29.698C75.1417 29.7925 74.9381 29.86 74.7278 29.9073C74.5174 29.9546 74.2935 29.9748 74.056 29.9748C73.3434 29.9748 72.787 29.7858 72.3866 29.4009C71.993 29.016 71.7894 28.4893 71.7894 27.8005C71.7894 27.1522 72.0066 26.6323 72.4341 26.2406C72.8616 25.849 73.4316 25.6599 74.151 25.6599C74.3749 25.6599 74.6056 25.6869 74.8228 25.7342C75.0467 25.7815 75.2707 25.8625 75.5014 25.9638C75.4674 26.0718 75.4335 26.1934 75.4064 26.3149C75.3792 26.4365 75.3589 26.5648 75.3453 26.6998" fill="white"/>
<path d="M76.6821 28.442C76.6821 28.9011 76.7296 29.2253 76.8246 29.4143C76.9196 29.6034 77.0825 29.6979 77.3065 29.6979C77.5304 29.6979 77.7 29.6034 77.795 29.4143C77.8901 29.2253 77.9443 28.9011 77.9443 28.442C77.9443 27.9828 77.8968 27.6587 77.795 27.4628C77.7 27.2738 77.5372 27.1792 77.3065 27.1792C77.0757 27.1792 76.9196 27.2738 76.8246 27.4628C76.7296 27.6519 76.6821 27.976 76.6821 28.442ZM75.7864 28.442C75.7864 27.9558 75.9221 27.5844 76.1935 27.3143C76.465 27.0442 76.8382 26.9091 77.32 26.9091C77.8018 26.9091 78.1886 27.0442 78.4465 27.3075C78.7112 27.5776 78.8401 27.949 78.8401 28.442C78.8401 28.9349 78.7044 29.2995 78.4329 29.5629C78.1615 29.833 77.7883 29.9613 77.3065 29.9613C76.8246 29.9613 76.4446 29.8262 76.18 29.5629C75.9153 29.2995 75.7796 28.9214 75.7796 28.442" fill="white"/>
<path d="M79.3762 29.8871C79.3898 29.5629 79.3966 29.2793 79.4034 29.0362C79.4034 28.7931 79.4101 28.5906 79.4101 28.4353C79.4101 28.2799 79.4101 28.0774 79.4034 27.841C79.3966 27.6047 79.3898 27.3143 79.3762 26.9902C79.4441 26.9969 79.5119 27.0037 79.5798 27.0105C79.6477 27.0105 79.7223 27.0105 79.8037 27.0105C79.8852 27.0105 79.9666 27.0105 80.0345 27.0105C80.1023 27.0105 80.1702 27.0037 80.2313 26.9902V27.3886C80.3534 27.2265 80.4891 27.105 80.6316 27.0375C80.7741 26.9632 80.937 26.9227 81.127 26.9227C81.3306 26.9227 81.507 26.9699 81.6495 27.0645C81.792 27.159 81.9006 27.3008 81.9685 27.4831C82.0906 27.2941 82.2263 27.1523 82.3892 27.0577C82.5453 26.9632 82.7285 26.9227 82.9457 26.9227C83.095 26.9227 83.2239 26.9497 83.346 26.9969C83.4614 27.0442 83.5632 27.1185 83.6514 27.213C83.7328 27.3076 83.7939 27.4291 83.8278 27.5844C83.8618 27.7397 83.8753 28.0098 83.8753 28.4082V28.7864C83.8753 28.9552 83.8753 29.1308 83.8821 29.3131C83.8821 29.4954 83.8957 29.6912 83.9025 29.8871C83.8143 29.8803 83.7328 29.8736 83.6582 29.8668C83.5835 29.8668 83.5089 29.8601 83.441 29.8601C83.3732 29.8601 83.2985 29.8601 83.2307 29.8668C83.156 29.8668 83.0814 29.8803 82.9999 29.8871C83.0203 29.6237 83.0271 29.3806 83.0407 29.151C83.0474 28.9282 83.0542 28.7189 83.0542 28.523C83.0542 28.0706 83.0203 27.7735 82.9457 27.6384C82.871 27.4966 82.7489 27.4291 82.5656 27.4291C82.3824 27.4291 82.2535 27.4966 82.1788 27.6384C82.1042 27.7802 82.0635 28.0233 82.0635 28.3812V29.3401C82.0635 29.4346 82.0635 29.5967 82.0838 29.833C82.0838 29.8601 82.0838 29.8803 82.0838 29.8938C81.9956 29.8871 81.921 29.8803 81.8463 29.8736C81.7717 29.8736 81.697 29.8668 81.6292 29.8668C81.5613 29.8668 81.4867 29.8668 81.4188 29.8736C81.3442 29.8736 81.2627 29.8871 81.1813 29.8938C81.1949 29.6642 81.2084 29.4481 81.2152 29.2321C81.2152 29.0227 81.2288 28.8202 81.2288 28.6311C81.2288 28.0976 81.1949 27.7667 81.127 27.6317C81.0592 27.4966 80.9302 27.4291 80.747 27.4291C80.5638 27.4291 80.4416 27.4966 80.367 27.6384C80.2923 27.7735 80.2516 28.0233 80.2516 28.3812V29.3401C80.2516 29.4346 80.2516 29.6035 80.272 29.833C80.272 29.8601 80.272 29.8803 80.272 29.8871C80.1973 29.8803 80.1227 29.8736 80.048 29.8668C79.9734 29.8668 79.9055 29.8601 79.8309 29.8601C79.763 29.8601 79.6952 29.8601 79.6273 29.8668C79.5527 29.8668 79.478 29.8803 79.3898 29.8871" fill="white"/>
<path d="M84.6693 29.8871C84.6828 29.5629 84.6896 29.2793 84.6964 29.0362C84.6964 28.7931 84.7032 28.5906 84.7032 28.4353C84.7032 28.2799 84.7032 28.0774 84.6964 27.841C84.6896 27.6047 84.6828 27.3143 84.6693 26.9902C84.7371 26.9969 84.805 27.0037 84.8728 27.0105C84.9407 27.0105 85.0153 27.0105 85.0968 27.0105C85.1782 27.0105 85.2596 27.0105 85.3275 27.0105C85.3954 27.0105 85.4632 27.0037 85.5243 26.9902V27.3886C85.6464 27.2265 85.7822 27.105 85.9247 27.0375C86.0672 26.9632 86.23 26.9227 86.42 26.9227C86.6236 26.9227 86.8001 26.9699 86.9426 27.0645C87.0851 27.159 87.1937 27.3008 87.2615 27.4831C87.3837 27.2941 87.5194 27.1523 87.6822 27.0577C87.8383 26.9632 88.0215 26.9227 88.2387 26.9227C88.388 26.9227 88.5169 26.9497 88.6391 26.9969C88.7544 27.0442 88.8562 27.1185 88.9444 27.213C89.0259 27.3076 89.087 27.4291 89.1209 27.5844C89.1548 27.7397 89.1684 28.0098 89.1684 28.4082V28.7864C89.1684 28.9552 89.1684 29.1308 89.1752 29.3131C89.1752 29.4954 89.1887 29.6912 89.1955 29.8871C89.1073 29.8803 89.0259 29.8736 88.9512 29.8668C88.8766 29.8668 88.8019 29.8601 88.7341 29.8601C88.6662 29.8601 88.5916 29.8601 88.5237 29.8668C88.4491 29.8668 88.3744 29.8803 88.293 29.8871C88.3133 29.6237 88.3201 29.3806 88.3337 29.151C88.3405 28.9282 88.3473 28.7189 88.3473 28.523C88.3473 28.0706 88.3133 27.7735 88.2387 27.6384C88.1641 27.4966 88.0419 27.4291 87.8587 27.4291C87.6755 27.4291 87.5465 27.4966 87.4719 27.6384C87.3972 27.7802 87.3565 28.0233 87.3565 28.3812V29.3401C87.3565 29.4346 87.3565 29.5967 87.3769 29.833C87.3769 29.8601 87.3769 29.8803 87.3769 29.8938C87.2887 29.8871 87.214 29.8803 87.1394 29.8736C87.0647 29.8736 86.9901 29.8668 86.9222 29.8668C86.8544 29.8668 86.7797 29.8668 86.7118 29.8736C86.6372 29.8736 86.5558 29.8871 86.4743 29.8938C86.4879 29.6642 86.5015 29.4481 86.5083 29.2321C86.5083 29.0227 86.5218 28.8202 86.5218 28.6311C86.5218 28.0976 86.4879 27.7667 86.42 27.6317C86.3522 27.4966 86.2233 27.4291 86.04 27.4291C85.8568 27.4291 85.7347 27.4966 85.66 27.6384C85.5854 27.7735 85.5447 28.0233 85.5447 28.3812V29.3401C85.5447 29.4346 85.5447 29.6035 85.565 29.833C85.565 29.8601 85.565 29.8803 85.565 29.8871C85.4904 29.8803 85.4157 29.8736 85.3411 29.8668C85.2664 29.8668 85.1986 29.8601 85.1239 29.8601C85.0561 29.8601 84.9882 29.8601 84.9203 29.8668C84.8457 29.8668 84.771 29.8803 84.6828 29.8871" fill="white"/>
<path d="M90.6546 28.442C90.6546 28.9011 90.7021 29.2253 90.7971 29.4143C90.8921 29.6034 91.0549 29.6979 91.2789 29.6979C91.5028 29.6979 91.6725 29.6034 91.7675 29.4143C91.8625 29.2253 91.9168 28.9011 91.9168 28.442C91.9168 27.9828 91.8693 27.6587 91.7675 27.4628C91.6725 27.2738 91.5096 27.1792 91.2789 27.1792C91.0481 27.1792 90.8921 27.2738 90.7971 27.4628C90.7021 27.6519 90.6546 27.976 90.6546 28.442ZM89.7588 28.442C89.7588 27.9558 89.8945 27.5844 90.166 27.3143C90.4374 27.0442 90.8106 26.9091 91.2924 26.9091C91.7742 26.9091 92.1543 27.0442 92.4189 27.3075C92.6836 27.5776 92.8125 27.949 92.8125 28.442C92.8125 28.9349 92.6768 29.2995 92.4053 29.5629C92.1339 29.833 91.7607 29.9613 91.2789 29.9613C90.7971 29.9613 90.417 29.8262 90.1524 29.5629C89.8877 29.2995 89.752 28.9214 89.752 28.442" fill="white"/>
<path d="M93.3553 29.887C93.3689 29.6169 93.3825 29.3671 93.3893 29.124C93.3961 28.8877 93.4029 28.6581 93.4029 28.4352C93.4029 28.1921 93.4029 27.9423 93.3893 27.6992C93.3825 27.4561 93.3689 27.213 93.3553 26.9767C93.4164 26.9834 93.4843 26.9902 93.5521 26.9969C93.62 26.9969 93.6947 26.9969 93.7761 26.9969C93.8575 26.9969 93.9322 26.9969 93.9932 26.9969C94.0611 26.9969 94.1222 26.9902 94.1832 26.9767V27.3953C94.3054 27.2333 94.4479 27.1117 94.604 27.0307C94.7601 26.9497 94.9297 26.9159 95.1265 26.9159C95.2758 26.9159 95.4115 26.9429 95.5337 26.9902C95.6558 27.0442 95.7576 27.1117 95.8458 27.213C95.9137 27.294 95.9612 27.3886 95.9883 27.5034C96.0155 27.6182 96.029 27.814 96.029 28.0976C96.029 28.1381 96.029 28.2394 96.029 28.4082C96.029 28.577 96.029 28.7256 96.029 28.8539C96.029 29.043 96.029 29.2253 96.0426 29.3873C96.0426 29.5562 96.0562 29.7182 96.0765 29.8735C95.9883 29.8668 95.9137 29.86 95.839 29.8533C95.7644 29.8533 95.6897 29.8465 95.6219 29.8465C95.554 29.8465 95.4794 29.8465 95.4047 29.8533C95.3301 29.8533 95.2554 29.8668 95.1672 29.8735C95.1808 29.7047 95.1944 29.4954 95.2011 29.259C95.2079 29.0227 95.2147 28.7526 95.2147 28.4622C95.2147 28.0233 95.1808 27.7397 95.1061 27.6114C95.0383 27.4831 94.9093 27.4223 94.7261 27.4223C94.5429 27.4223 94.4072 27.4966 94.3258 27.6519C94.2443 27.8005 94.2036 28.0638 94.2036 28.4217C94.2036 28.5905 94.2036 28.7999 94.2104 29.043C94.2104 29.2861 94.224 29.5629 94.2375 29.8803C94.1629 29.8735 94.0882 29.8668 94.0136 29.86C93.9389 29.86 93.8711 29.8533 93.7964 29.8533C93.7218 29.8533 93.6607 29.8533 93.5861 29.86C93.5114 29.86 93.4368 29.8735 93.3553 29.8803" fill="white"/>
<path d="M97.7188 29.887C97.5423 29.2185 97.3523 28.5433 97.1419 27.8545C96.9316 27.1657 96.7009 26.4567 96.4498 25.7409C96.5244 25.7477 96.6058 25.7545 96.6941 25.7612C96.7755 25.7612 96.8705 25.7612 96.9723 25.7612C97.0741 25.7612 97.1623 25.7612 97.2437 25.7612C97.3252 25.7612 97.4066 25.7545 97.488 25.7409C97.6034 26.2474 97.7323 26.7538 97.8681 27.2603C98.0038 27.7667 98.1531 28.2664 98.3024 28.7661C98.4924 28.2124 98.6756 27.6924 98.8452 27.1928C99.0149 26.6931 99.1777 26.2069 99.3338 25.7342C99.3813 25.7409 99.4288 25.7477 99.4763 25.7544C99.5238 25.7544 99.5781 25.7544 99.6392 25.7544C99.7003 25.7544 99.7546 25.7544 99.8021 25.7544C99.8496 25.7544 99.9039 25.7477 99.9514 25.7342C100.094 26.2136 100.25 26.6998 100.413 27.1995C100.576 27.6992 100.752 28.2056 100.935 28.7188C101.105 28.2327 101.268 27.7397 101.417 27.2468C101.566 26.7471 101.702 26.2474 101.831 25.7342C101.872 25.7409 101.919 25.7477 101.96 25.7544C102.008 25.7544 102.055 25.7544 102.109 25.7544C102.164 25.7544 102.211 25.7544 102.259 25.7544C102.306 25.7544 102.347 25.7477 102.388 25.7342C102.17 26.3487 101.946 27.0037 101.716 27.6924C101.485 28.3812 101.247 29.1105 101.003 29.887C100.949 29.8803 100.895 29.8735 100.84 29.8668C100.786 29.8668 100.739 29.86 100.684 29.86C100.637 29.86 100.589 29.86 100.542 29.8668C100.487 29.8668 100.433 29.8803 100.372 29.887C100.23 29.4211 100.08 28.9417 99.9174 28.4555C99.7546 27.9693 99.5781 27.4696 99.3881 26.9497C99.2049 27.4088 99.0285 27.8883 98.852 28.3812C98.6756 28.8674 98.5059 29.3738 98.3431 29.887C98.2888 29.8803 98.2345 29.8735 98.1802 29.8668C98.1259 29.8668 98.0784 29.86 98.0309 29.86C97.9834 29.86 97.9359 29.86 97.8816 29.8668C97.8341 29.8668 97.7798 29.8803 97.7188 29.887" fill="white"/>
<path d="M103.405 28.1449H104.437C104.437 28.1449 104.437 28.0976 104.437 28.0638C104.437 28.0301 104.437 28.0098 104.437 27.9963C104.437 27.7195 104.396 27.5169 104.315 27.3751C104.233 27.2333 104.118 27.1657 103.962 27.1657C103.785 27.1657 103.643 27.2468 103.548 27.4088C103.446 27.5709 103.399 27.7937 103.399 28.0908V28.1449H103.405ZM103.405 28.442C103.405 28.7931 103.487 29.07 103.657 29.2726C103.826 29.4751 104.05 29.5832 104.335 29.5832C104.478 29.5832 104.613 29.5629 104.742 29.5156C104.871 29.4684 104.993 29.3941 105.116 29.2996L105.177 29.3468L105.041 29.6912C104.912 29.779 104.763 29.8465 104.593 29.8938C104.423 29.9411 104.233 29.9681 104.037 29.9681C103.562 29.9681 103.188 29.8263 102.924 29.5494C102.652 29.2726 102.523 28.8877 102.523 28.3947C102.523 27.949 102.659 27.5912 102.924 27.321C103.188 27.0509 103.548 26.9159 103.989 26.9159C104.41 26.9159 104.729 27.0307 104.953 27.2603C105.177 27.4899 105.285 27.8207 105.285 28.2529C105.285 28.3069 105.285 28.3474 105.285 28.3745C105.285 28.4015 105.285 28.4285 105.285 28.4487H103.419L103.405 28.442Z" fill="white"/>
<path d="M107.273 28.2934C106.988 28.3542 106.792 28.4352 106.663 28.5568C106.541 28.6716 106.473 28.8336 106.473 29.043C106.473 29.2185 106.507 29.3468 106.568 29.4346C106.629 29.5224 106.724 29.5629 106.853 29.5629C106.988 29.5629 107.09 29.5156 107.165 29.4143C107.24 29.3198 107.273 29.178 107.273 28.9957V28.2867V28.2934ZM107.301 29.5089C107.212 29.6574 107.097 29.7655 106.955 29.8465C106.812 29.9275 106.649 29.9681 106.473 29.9681C106.215 29.9681 106.011 29.8938 105.869 29.7385C105.719 29.5899 105.652 29.3806 105.652 29.124C105.652 28.9349 105.706 28.7729 105.808 28.6513C105.909 28.5298 106.072 28.4285 106.296 28.3542C106.371 28.3272 106.473 28.3002 106.608 28.2529C106.927 28.1584 107.145 28.0706 107.26 27.9895C107.26 27.976 107.26 27.9625 107.26 27.949C107.26 27.9355 107.26 27.9153 107.26 27.8883C107.26 27.7059 107.206 27.5574 107.104 27.4493C106.995 27.3413 106.86 27.2873 106.683 27.2873C106.547 27.2873 106.418 27.3278 106.31 27.4021C106.201 27.4764 106.093 27.5979 105.998 27.7532C105.971 27.6587 105.943 27.5844 105.923 27.5236C105.903 27.4628 105.882 27.4156 105.862 27.3616C106.045 27.2062 106.222 27.0915 106.398 27.0104C106.575 26.9361 106.758 26.8956 106.948 26.8956C107.314 26.8956 107.592 26.9767 107.789 27.1455C107.986 27.3143 108.081 27.5506 108.081 27.868V27.895L108.061 28.9552V29.07C108.061 29.3131 108.088 29.4751 108.142 29.5427C108.196 29.6102 108.305 29.6507 108.461 29.6507H108.481V29.7992C108.38 29.8398 108.271 29.8735 108.162 29.9005C108.054 29.9275 107.945 29.9343 107.843 29.9343C107.694 29.9343 107.579 29.9005 107.484 29.8263C107.389 29.752 107.328 29.6439 107.294 29.5021" fill="white"/>
<path d="M108.902 29.8871C108.916 29.5427 108.929 29.1915 108.936 28.8201C108.936 28.4487 108.95 28.0503 108.95 27.6249C108.95 27.1725 108.95 26.7606 108.936 26.3892C108.929 26.0178 108.916 25.6667 108.902 25.3358C108.997 25.3493 109.079 25.3628 109.153 25.3696C109.221 25.3696 109.289 25.3763 109.357 25.3763C109.425 25.3763 109.492 25.3763 109.567 25.3628C109.642 25.356 109.723 25.3425 109.811 25.329C109.798 25.6734 109.784 26.0313 109.777 26.4027C109.771 26.7741 109.764 27.1725 109.764 27.5979C109.764 28.0503 109.764 28.4622 109.777 28.8336C109.784 29.205 109.798 29.5562 109.811 29.8871C109.744 29.8735 109.669 29.86 109.594 29.8533C109.52 29.8465 109.438 29.8398 109.357 29.8398C109.275 29.8398 109.194 29.8398 109.119 29.8533C109.045 29.86 108.97 29.8668 108.895 29.8871" fill="white"/>
<path d="M110.646 27.3278H110.538C110.456 27.3278 110.395 27.3278 110.354 27.3278C110.314 27.3278 110.273 27.3278 110.239 27.3278C110.239 27.3076 110.239 27.2873 110.246 27.2671C110.246 27.2468 110.246 27.213 110.246 27.1725C110.246 27.132 110.246 27.0983 110.246 27.0712C110.246 27.051 110.246 27.0307 110.246 27.0105C110.253 27.0105 110.266 27.0105 110.28 27.0105C110.422 27.024 110.531 27.0307 110.592 27.0307H110.66C110.66 27.0307 110.66 26.97 110.66 26.9362C110.66 26.9024 110.66 26.8552 110.66 26.7876C110.66 26.7066 110.66 26.6256 110.66 26.5378C110.66 26.45 110.646 26.342 110.639 26.2069C110.782 26.1529 110.918 26.0989 111.053 26.0381C111.189 25.9773 111.325 25.9165 111.454 25.8558L111.522 25.9098C111.508 26.1394 111.501 26.3352 111.494 26.4905C111.494 26.6458 111.488 26.7674 111.488 26.8484V27.0375C111.596 27.0375 111.705 27.0375 111.8 27.0375C111.895 27.0375 111.99 27.0307 112.085 27.0172C112.085 27.0645 112.078 27.0983 112.071 27.1118C112.071 27.132 112.071 27.1523 112.071 27.1725C112.071 27.2063 112.071 27.2536 112.078 27.3143C112.078 27.3211 112.078 27.3278 112.078 27.3346C112.03 27.3346 111.969 27.3346 111.888 27.3346C111.807 27.3346 111.671 27.3346 111.474 27.3346C111.474 27.3616 111.474 27.4089 111.474 27.4764C111.46 27.8951 111.454 28.1922 111.454 28.3745V28.6176C111.454 29.0835 111.474 29.3671 111.522 29.4819C111.569 29.59 111.657 29.6507 111.786 29.6507C111.854 29.6507 111.969 29.6305 112.139 29.5832V29.806C112.003 29.8668 111.881 29.9073 111.766 29.9344C111.65 29.9614 111.542 29.9749 111.433 29.9749C111.175 29.9749 110.972 29.9073 110.836 29.7655C110.7 29.6305 110.633 29.4279 110.633 29.1646C110.633 29.151 110.633 28.9822 110.639 28.6446C110.646 28.307 110.653 27.9761 110.653 27.652V27.3278H110.646Z" fill="white"/>
<path d="M112.519 29.887C112.533 29.671 112.546 29.4076 112.553 29.097C112.553 28.7796 112.56 28.3272 112.56 27.733C112.56 27.0982 112.56 26.6053 112.553 26.2541C112.546 25.903 112.533 25.5991 112.519 25.3425C112.6 25.356 112.682 25.3695 112.75 25.3763C112.824 25.383 112.892 25.3898 112.96 25.3898C113.028 25.3898 113.103 25.3898 113.177 25.3763C113.252 25.3695 113.327 25.356 113.408 25.3425C113.388 25.5113 113.374 25.6869 113.361 25.876C113.347 26.0651 113.347 26.2676 113.347 26.4905V27.4358C113.456 27.267 113.591 27.1455 113.747 27.0577C113.903 26.9767 114.087 26.9294 114.283 26.9294C114.433 26.9294 114.562 26.9564 114.691 27.0037C114.813 27.0577 114.915 27.1252 114.996 27.2265C115.071 27.3075 115.118 27.4088 115.152 27.5304C115.179 27.6519 115.2 27.8477 115.2 28.1179C115.2 28.1584 115.2 28.2597 115.2 28.4285C115.2 28.5973 115.2 28.7458 115.2 28.8741C115.2 29.097 115.2 29.2928 115.206 29.4481C115.206 29.6102 115.22 29.7587 115.233 29.8938C115.152 29.887 115.071 29.8803 114.996 29.8735C114.921 29.8735 114.853 29.8668 114.786 29.8668C114.718 29.8668 114.643 29.8668 114.575 29.8735C114.501 29.8735 114.426 29.887 114.338 29.8938C114.351 29.725 114.365 29.5156 114.372 29.2793C114.378 29.043 114.385 28.7729 114.385 28.4825C114.385 28.0436 114.351 27.76 114.283 27.6317C114.216 27.5034 114.087 27.4426 113.903 27.4426C113.72 27.4426 113.584 27.5169 113.503 27.6722C113.422 27.8207 113.381 28.0841 113.381 28.442C113.381 28.6311 113.381 28.8471 113.388 29.097C113.388 29.3468 113.401 29.6102 113.415 29.9005C113.333 29.8938 113.259 29.887 113.184 29.8803C113.109 29.8803 113.042 29.8735 112.967 29.8735C112.892 29.8735 112.831 29.8735 112.757 29.8803C112.682 29.8803 112.607 29.8938 112.526 29.9005" fill="white"/>
<path d="M71.9183 36.6599C71.9658 36.3493 72.0133 36.0792 72.0473 35.8564C72.0812 35.6335 72.1083 35.4715 72.1219 35.3769L72.5087 32.5071C72.5494 32.5138 72.5902 32.5206 72.6309 32.5273C72.6716 32.5273 72.7191 32.5273 72.7666 32.5273C72.8141 32.5273 72.8616 32.5273 72.9091 32.5273C72.9566 32.5273 72.9973 32.5206 73.038 32.5071C73.2552 32.9932 73.4859 33.4659 73.7166 33.9386C73.9473 34.4113 74.1984 34.8772 74.4427 35.3432C74.687 34.8907 74.9177 34.4316 75.1485 33.9589C75.3792 33.4862 75.6099 33 75.8339 32.5003C75.8746 32.5071 75.9221 32.5138 75.9696 32.5206C76.0171 32.5206 76.0646 32.5206 76.1189 32.5206C76.1732 32.5206 76.2207 32.5206 76.2682 32.5206C76.3157 32.5206 76.3564 32.5138 76.3971 32.5003L76.7432 35.4039C76.7839 35.7281 76.8178 35.9779 76.845 36.1602C76.8721 36.3425 76.9061 36.5046 76.94 36.6464C76.8382 36.6397 76.75 36.6329 76.6618 36.6261C76.5803 36.6261 76.4989 36.6194 76.4175 36.6194C76.336 36.6194 76.2614 36.6194 76.1732 36.6261C76.0917 36.6261 76.0035 36.6397 75.9153 36.6464C75.9153 36.6329 75.9153 36.6126 75.9153 36.5856C75.8949 36.1602 75.8814 35.8969 75.8678 35.7956L75.671 33.8576C75.4403 34.2897 75.2163 34.7422 74.9856 35.2013C74.7549 35.6605 74.5242 36.14 74.2867 36.6464C74.2731 36.6464 74.2595 36.6464 74.2392 36.6397C74.2256 36.6397 74.1917 36.6397 74.1577 36.6397C74.1238 36.6397 74.0966 36.6397 74.0831 36.6397C74.0695 36.6397 74.0491 36.6397 74.0356 36.6464C73.7981 36.1535 73.5673 35.6808 73.3434 35.2351C73.1195 34.7894 72.8955 34.364 72.6784 33.9589L72.5359 35.2216V35.2689C72.4544 35.9239 72.4205 36.3831 72.4137 36.6532C72.3662 36.6464 72.3255 36.6397 72.2848 36.6329C72.2441 36.6329 72.2033 36.6261 72.1694 36.6261C72.1287 36.6261 72.088 36.6262 72.0473 36.6329C72.0066 36.6329 71.9658 36.6464 71.9183 36.6532" fill="white"/>
<path d="M79.0165 35.0595C78.7315 35.1203 78.5347 35.2013 78.4058 35.3229C78.2836 35.4377 78.2158 35.5997 78.2158 35.8091C78.2158 35.9846 78.2497 36.1129 78.3108 36.2007C78.3718 36.2885 78.4668 36.329 78.5958 36.329C78.7315 36.329 78.8333 36.2818 78.9079 36.1805C78.9826 36.0859 79.0165 35.9441 79.0165 35.7618V35.0528V35.0595ZM79.0436 36.275C78.9554 36.4236 78.8401 36.5316 78.6976 36.6126C78.5551 36.6937 78.3922 36.7342 78.2158 36.7342C77.9579 36.7342 77.7611 36.6599 77.6118 36.5046C77.4625 36.356 77.3947 36.1467 77.3947 35.8901C77.3947 35.701 77.4489 35.539 77.5507 35.4174C77.6525 35.2959 77.8154 35.1946 78.0393 35.1203C78.114 35.0933 78.2158 35.0663 78.3515 35.019C78.6704 34.9245 78.8876 34.8367 79.0029 34.7557C79.0029 34.7422 79.0029 34.7287 79.0029 34.7152C79.0029 34.7016 79.0029 34.6814 79.0029 34.6544C79.0029 34.4721 78.9486 34.3235 78.8469 34.2155C78.7383 34.1074 78.6026 34.0534 78.4261 34.0534C78.2904 34.0534 78.1615 34.0939 78.0529 34.1682C77.9443 34.2425 77.8357 34.364 77.7407 34.5193C77.7136 34.4248 77.6864 34.3505 77.6661 34.2897C77.6457 34.229 77.6254 34.1817 77.605 34.1277C77.7882 33.9724 77.9647 33.8576 78.1411 33.7765C78.3175 33.7023 78.5008 33.6617 78.6908 33.6617C79.0572 33.6617 79.3354 33.7428 79.5322 33.9116C79.729 34.0804 79.824 34.3167 79.824 34.6341V34.6611L79.8037 35.7213V35.8361C79.8037 36.0859 79.8308 36.2412 79.8851 36.3155C79.9394 36.383 80.048 36.4236 80.2041 36.4236H80.2244V36.5721C80.1226 36.6126 80.0141 36.6464 79.9055 36.6734C79.7969 36.6937 79.6883 36.7072 79.5865 36.7072C79.4372 36.7072 79.3219 36.6734 79.2269 36.5991C79.1319 36.5248 79.0708 36.4168 79.0369 36.275" fill="white"/>
<path d="M81.3305 34.6409C81.3305 34.8907 81.3645 35.0731 81.4391 35.1879C81.5137 35.3027 81.6291 35.3634 81.7852 35.3634C81.9413 35.3634 82.0634 35.3027 82.1381 35.1811C82.2127 35.0596 82.2466 34.857 82.2466 34.5734C82.2466 34.3505 82.2127 34.1885 82.1381 34.0872C82.0634 33.9791 81.9548 33.9251 81.8056 33.9251C81.6563 33.9251 81.5409 33.9859 81.4595 34.1142C81.378 34.2357 81.3373 34.4181 81.3373 34.6477L81.3305 34.6409ZM81.3373 36.8422C81.2355 36.8963 81.1609 36.9638 81.1066 37.0651C81.0523 37.1596 81.0252 37.2677 81.0252 37.3892C81.0252 37.5985 81.093 37.7606 81.2355 37.8889C81.378 38.0105 81.5612 38.078 81.7988 38.078C82.077 38.078 82.2941 38.024 82.4502 37.9092C82.6063 37.7944 82.6877 37.6391 82.6877 37.4432C82.6877 37.2609 82.6402 37.1326 82.5317 37.0448C82.4299 36.957 82.267 36.9098 82.0431 36.8963L81.3373 36.8558V36.8422ZM81.0727 36.8085V36.7612C80.9573 36.7207 80.8623 36.6599 80.7877 36.5789C80.7198 36.4979 80.6859 36.3966 80.6859 36.2818C80.6859 36.1467 80.7401 36.0184 80.8419 35.9036C80.9505 35.7888 81.0998 35.6876 81.2966 35.6065V35.5322C81.0387 35.4782 80.8419 35.3837 80.7062 35.2351C80.5773 35.0866 80.5094 34.8975 80.5094 34.6679C80.5094 34.3708 80.6248 34.1345 80.8487 33.9589C81.0794 33.7833 81.3848 33.6888 81.7648 33.6888C81.7988 33.6888 81.9345 33.6955 82.172 33.7158C82.4095 33.7361 82.6267 33.7428 82.8235 33.7428C82.9049 33.7428 82.9931 33.7428 83.0813 33.7428C83.1695 33.7428 83.2713 33.736 83.3731 33.7293V34.0264C83.251 34.0264 83.0813 34.0129 82.8642 34.0062C82.8167 34.0062 82.7895 34.0062 82.7692 34.0062C82.871 34.0737 82.9524 34.1615 83.0067 34.2628C83.061 34.364 83.0881 34.4856 83.0881 34.6274C83.0881 34.9448 82.966 35.1879 82.7285 35.3634C82.4909 35.539 82.1516 35.6268 81.7173 35.6268H81.6155C81.5341 35.6335 81.473 35.6673 81.4187 35.7213C81.3712 35.7753 81.3441 35.8429 81.3441 35.9171C81.3441 36.0995 81.6359 36.2008 82.2127 36.2278H82.2466C82.2466 36.2278 82.2874 36.2278 82.3213 36.2278C82.6945 36.248 82.932 36.2818 83.0406 36.3426C83.1627 36.4101 83.2578 36.5114 83.3256 36.6329C83.3935 36.7545 83.4206 36.8963 83.4206 37.0583C83.4206 37.4297 83.2645 37.7403 82.9592 37.9767C82.647 38.213 82.2466 38.3346 81.7513 38.3346C81.3441 38.3346 81.0252 38.2671 80.8012 38.1252C80.5705 37.9834 80.4619 37.7944 80.4619 37.5513C80.4619 37.3757 80.5094 37.2204 80.618 37.1056C80.7198 36.9841 80.8759 36.8895 81.0862 36.8152" fill="white"/>
<path d="M85.2257 35.0595C84.9407 35.1203 84.7439 35.2013 84.615 35.3229C84.4929 35.4377 84.425 35.5997 84.425 35.8091C84.425 35.9846 84.4589 36.1129 84.52 36.2007C84.5811 36.2885 84.6761 36.329 84.805 36.329C84.9407 36.329 85.0425 36.2818 85.1172 36.1805C85.1918 36.0859 85.2257 35.9441 85.2257 35.7618V35.0528V35.0595ZM85.2529 36.275C85.1647 36.4236 85.0493 36.5316 84.9068 36.6126C84.7643 36.6937 84.6014 36.7342 84.425 36.7342C84.1671 36.7342 83.9703 36.6599 83.821 36.5046C83.6717 36.356 83.6039 36.1467 83.6039 35.8901C83.6039 35.701 83.6582 35.539 83.76 35.4174C83.8617 35.2959 84.0246 35.1946 84.2486 35.1203C84.3164 35.0933 84.425 35.0663 84.5607 35.019C84.8797 34.9245 85.0968 34.8367 85.2122 34.7557C85.2122 34.7422 85.2122 34.7287 85.2122 34.7152C85.2122 34.7016 85.2122 34.6814 85.2122 34.6544C85.2122 34.4721 85.1579 34.3235 85.0561 34.2155C84.9475 34.1074 84.8118 34.0534 84.6354 34.0534C84.4996 34.0534 84.3707 34.0939 84.2621 34.1682C84.1535 34.2425 84.045 34.364 83.95 34.5193C83.9228 34.4248 83.8957 34.3505 83.8753 34.2897C83.855 34.229 83.8346 34.1817 83.8142 34.1277C83.9975 33.9724 84.1739 33.8576 84.3503 33.7765C84.5268 33.7023 84.71 33.6617 84.9 33.6617C85.2665 33.6617 85.5447 33.7428 85.7415 33.9116C85.9383 34.0804 86.0333 34.3167 86.0333 34.6341V34.6611L86.0129 35.7213V35.8361C86.0129 36.0859 86.0401 36.2412 86.0943 36.3155C86.1486 36.3898 86.2572 36.4236 86.4133 36.4236H86.4336V36.5721C86.3319 36.6126 86.2233 36.6464 86.1147 36.6734C86.0061 36.6937 85.8976 36.7072 85.7958 36.7072C85.6465 36.7072 85.5311 36.6734 85.4361 36.5991C85.3411 36.5248 85.28 36.4168 85.2461 36.275" fill="white"/>
<path d="M86.5151 36.6599V36.5654C86.739 36.221 87.0987 35.6875 87.5805 34.9515L88.1505 34.0872C88.0216 34.0872 87.9266 34.0804 87.8519 34.0737C87.7841 34.0737 87.7162 34.0737 87.6483 34.0737C87.4855 34.0737 87.2208 34.0804 86.868 34.0939C86.834 34.0939 86.8137 34.0939 86.8001 34.0939C86.8001 34.0737 86.8001 34.0534 86.8069 34.0264C86.8069 34.0061 86.8069 33.9724 86.8069 33.9251C86.8069 33.8778 86.8069 33.8441 86.8069 33.8238C86.8069 33.8036 86.8069 33.7765 86.8001 33.7563C86.9833 33.763 87.1733 33.7698 87.3701 33.7765C87.5669 33.7765 87.7841 33.7765 88.008 33.7765C88.2319 33.7765 88.4491 33.7765 88.6391 33.7765C88.8359 33.7765 89.0191 33.7698 89.1956 33.7563V33.8306C89.0531 34.0466 88.8563 34.3438 88.5984 34.7354C88.3405 35.1271 88.0012 35.6538 87.5669 36.3155C87.7162 36.3155 87.8248 36.3223 87.8994 36.3223C87.9741 36.3223 88.0419 36.3223 88.103 36.3223C88.2862 36.3223 88.4694 36.3223 88.6459 36.3155C88.8223 36.3088 88.992 36.2953 89.1684 36.2885C89.1684 36.3223 89.1616 36.356 89.1616 36.3831C89.1616 36.4101 89.1616 36.4371 89.1616 36.4573C89.1616 36.4776 89.1616 36.5046 89.1616 36.5316C89.1616 36.5586 89.1616 36.5991 89.1684 36.6532C88.992 36.6464 88.7952 36.6397 88.5916 36.6329C88.3812 36.6329 88.1437 36.6261 87.8723 36.6261C87.6008 36.6261 87.3566 36.6261 87.1394 36.6329C86.9222 36.6329 86.7119 36.6464 86.5219 36.6532" fill="white"/>
<path d="M89.7113 36.6599C89.7248 36.3493 89.7384 36.0792 89.7452 35.8496C89.7452 35.62 89.752 35.4039 89.752 35.2081C89.752 34.9785 89.752 34.7489 89.7384 34.5058C89.7316 34.2695 89.718 34.0196 89.7045 33.7563C89.7723 33.7563 89.847 33.763 89.9216 33.7698C89.9963 33.7698 90.0777 33.7698 90.1523 33.7698C90.227 33.7698 90.3084 33.7698 90.3899 33.7698C90.4645 33.7698 90.5391 33.763 90.607 33.7563C90.5934 34.0196 90.5799 34.2695 90.5799 34.5058C90.5731 34.7421 90.5663 34.9785 90.5663 35.2081C90.5663 35.4107 90.5663 35.62 90.5799 35.8496C90.5799 36.0792 90.5934 36.3493 90.607 36.6531C90.5324 36.6396 90.4509 36.6329 90.3763 36.6329C90.3016 36.6329 90.227 36.6261 90.1523 36.6261C90.0777 36.6261 90.0098 36.6261 89.9352 36.6329C89.8605 36.6329 89.7859 36.6464 89.7045 36.6531L89.7113 36.6599ZM89.7045 32.6556C89.7045 32.5273 89.7452 32.4192 89.8402 32.3315C89.9352 32.2437 90.037 32.1964 90.1727 32.1964C90.3084 32.1964 90.4102 32.2437 90.4984 32.3315C90.5866 32.4192 90.6274 32.5273 90.6274 32.6556C90.6274 32.7839 90.5799 32.8919 90.4916 32.9797C90.4034 33.0675 90.2948 33.1148 90.1659 33.1148C90.037 33.1148 89.9284 33.0675 89.8402 32.9797C89.752 32.8919 89.7113 32.7839 89.7113 32.6556" fill="white"/>
<path d="M91.3806 36.6599C91.3942 36.3898 91.4078 36.14 91.4145 35.8969C91.4213 35.6605 91.4281 35.431 91.4281 35.2081C91.4281 34.965 91.4281 34.7152 91.4145 34.4721C91.4078 34.229 91.3942 33.9859 91.3806 33.7496C91.4417 33.7563 91.5095 33.7631 91.5774 33.7698C91.6453 33.7698 91.7199 33.7698 91.8013 33.7698C91.8828 33.7698 91.9506 33.7698 92.0185 33.7698C92.0864 33.7698 92.1474 33.7631 92.2085 33.7496V34.1682C92.3306 34.0062 92.4732 33.8846 92.6292 33.8036C92.7853 33.7225 92.955 33.6888 93.1518 33.6888C93.301 33.6888 93.4368 33.7158 93.5589 33.7631C93.6811 33.8171 93.7829 33.8846 93.8711 33.9859C93.9389 34.0669 93.9864 34.1615 94.0136 34.2763C94.0407 34.3911 94.0543 34.5869 94.0543 34.8705C94.0543 34.911 94.0543 35.0123 94.0543 35.1811C94.0543 35.3499 94.0543 35.4985 94.0543 35.6268C94.0543 35.8159 94.0543 35.9982 94.0679 36.1602C94.0679 36.3291 94.0814 36.4911 94.1018 36.6464C94.0136 36.6397 93.9389 36.6329 93.8643 36.6262C93.7896 36.6262 93.715 36.6194 93.6471 36.6194C93.5793 36.6194 93.5046 36.6194 93.43 36.6262C93.3553 36.6262 93.2807 36.6397 93.1925 36.6464C93.2061 36.4776 93.2196 36.2683 93.2264 36.0319C93.2332 35.7956 93.24 35.5255 93.24 35.2351C93.24 34.7962 93.206 34.5126 93.1314 34.3843C93.0635 34.256 92.9346 34.1952 92.7514 34.1952C92.5682 34.1952 92.4324 34.2695 92.351 34.4248C92.2696 34.5734 92.2289 34.8367 92.2289 35.1946C92.2289 35.3634 92.2289 35.5728 92.2356 35.8159C92.2356 36.0589 92.2492 36.3358 92.2628 36.6532C92.1881 36.6464 92.1135 36.6397 92.0388 36.6329C91.9642 36.6329 91.8963 36.6262 91.8217 36.6262C91.7471 36.6262 91.686 36.6262 91.6113 36.6329C91.5367 36.6329 91.462 36.6464 91.3806 36.6532" fill="white"/>
<path d="M95.5473 34.9177H96.5788C96.5788 34.9177 96.5788 34.8705 96.5788 34.8367C96.5788 34.8029 96.5788 34.7827 96.5788 34.7692C96.5788 34.4923 96.538 34.2897 96.4566 34.1479C96.3752 34.0061 96.2598 33.9386 96.1037 33.9386C95.9273 33.9386 95.7848 34.0196 95.6898 34.1749C95.588 34.337 95.5405 34.5666 95.5405 34.857V34.911L95.5473 34.9177ZM95.5473 35.2149C95.5473 35.566 95.6287 35.8428 95.7984 36.0454C95.968 36.248 96.192 36.356 96.477 36.356C96.6195 36.356 96.7552 36.3358 96.8841 36.2885C97.0131 36.2412 97.1352 36.167 97.2574 36.0724L97.3184 36.1197L97.1827 36.4641C97.0538 36.5519 96.9045 36.6194 96.7348 36.6667C96.5652 36.7139 96.3752 36.7409 96.1784 36.7409C95.7034 36.7409 95.3301 36.5991 95.0655 36.3223C94.794 36.0454 94.6651 35.6605 94.6651 35.1676C94.6651 34.7219 94.8008 34.364 95.0655 34.0939C95.3301 33.8238 95.6898 33.682 96.1309 33.682C96.5516 33.682 96.8706 33.7968 97.0945 34.0264C97.3184 34.256 97.427 34.5869 97.427 35.019C97.427 35.073 97.427 35.1136 97.427 35.1406C97.427 35.1676 97.427 35.1946 97.427 35.2149H95.5608H95.5473Z" fill="white"/>
<path d="M81.4866 11.1283C81.3713 10.5476 81.0455 9.30513 80.7402 8.50832L81.2016 8.27873C81.792 8.92023 82.4027 10.0277 82.6606 10.6827L81.4866 11.1216V11.1283ZM81.1134 17.3812H79.7223V19.846H81.1134V17.3812ZM81.1134 14.5181H79.7223V16.7398H81.1134V14.5181ZM81.1134 11.9657H79.7223V13.8766H81.1134V11.9657ZM78.1208 10.6692H71.9523V10.0277H75.1485C74.6327 9.48745 74.117 9.04178 73.5741 8.60286L73.7777 8.16394C74.5785 8.39353 75.5557 8.80544 76.1528 9.23085L75.5828 10.0277H78.1343V10.6692H78.1208ZM72.1084 15.1124L71.7216 14.7815C72.3934 13.7011 72.8955 12.148 73.1534 10.7637L74.3138 11.0338C74.246 11.3917 74.0831 11.8036 73.8999 12.2425C74.4427 12.6139 74.9178 13.0123 75.2774 13.4242L74.4631 14.194C74.2324 13.7348 73.9609 13.2554 73.6624 12.7827C73.2348 13.6538 72.658 14.5316 72.1151 15.1056L72.1084 15.1124ZM84.5471 19.8324V20.4874H79.7358V21.5679H78.4736L78.4872 14.0995C78.2904 14.4101 78.0868 14.7275 77.8697 15.0111L77.4693 14.714C77.639 14.3561 77.8018 14.0185 77.9308 13.6606L77.2589 14.2751C77.0418 13.8361 76.7839 13.3634 76.4718 12.9178C76.2139 13.458 75.8814 13.9847 75.5421 14.4574H75.7864V15.7944H78.1615V16.4359H75.7864V16.9491C76.6482 17.4353 77.4625 17.935 78.0597 18.5022L77.2182 19.4408C76.8178 18.8398 76.2139 18.1308 75.7864 17.6311V21.6489H74.5513V17.9147C74.0084 18.725 73.0516 19.8392 71.8709 20.6765L71.5723 20.2646C72.6037 19.2382 73.5741 17.9822 74.2527 16.4291H71.8912V15.7876H74.5513V14.4506H74.9246C75.5082 13.3972 75.8135 12.1007 75.9696 10.8042L77.13 11.0878C77.0622 11.4727 76.9129 11.8846 76.7432 12.3235C77.2454 12.6544 77.7 13.0056 78.0325 13.3905C78.5347 11.9386 78.7044 10.3991 78.9215 8.31925L80.2244 8.57585C80.1362 9.51446 79.9666 10.4261 79.7087 11.2972H84.3639V11.9386H82.362V13.8496H84.011V14.4911H82.362V16.7127H84.0246V17.3542H82.362V19.8189H84.5539L84.5471 19.8324Z" fill="white"/>
<path d="M100.494 19.1302L99.361 19.6839C99.0014 18.5427 98.6281 17.5636 98.1599 16.5912L98.5603 16.3211C99.361 17.1449 100.019 18.1038 100.494 19.1302V19.1302ZM95.4251 14.5587C96.1241 14.8558 97.427 15.5716 97.9767 16.1253L97.1284 17.0774C96.6262 16.4494 95.7237 15.4973 95.1673 14.9706L95.4251 14.5587V14.5587ZM98.2345 18.0363C98.8928 20.3727 99.0081 21.2843 96.7755 21.2843C94.6855 21.2843 94.4004 21.129 94.4004 19.5894V15.8822H95.6626V19.3598C95.6626 19.9337 95.7916 20.1161 96.6941 20.1161C97.7256 20.1161 97.7392 19.9337 97.7256 18.0363H98.2413H98.2345ZM95.683 11.412H92.7311V10.7705H95.683V8.38003H96.9723V10.7705H99.9785V11.412H96.9723V13.8767H99.7953V14.5182H93.0364V13.8767H95.683V11.412ZM90.8717 17.3272H89.2363V19.9202H90.8717V17.3272ZM93.5047 16.6452L94.0069 16.7465C93.9186 18.2591 93.5929 19.5083 92.9347 20.3794L91.9778 19.6704V21.3923H90.8921V20.555H89.2431V21.5949H88.1234V16.706H91.9778V19.5286C92.7107 18.7858 93.2672 17.935 93.5115 16.652L93.5047 16.6452ZM92.1068 15.3285H88.0827V14.7275H92.1068V15.3285ZM88.0827 12.7625H92.1068V13.3635H88.0827V12.7625ZM92.4325 11.4255H87.6619V10.784H89.8538C89.3788 9.97365 88.8495 9.08905 88.5238 8.61637L88.8834 8.25848C89.5552 8.70416 90.4985 9.4672 91.0889 10.21L90.3424 10.7772H92.4325V11.4187V11.4255Z" fill="white"/>
<path d="M67.3921 21.4125C67.0867 21.0614 66.7542 20.8521 66.5778 20.7575C66.5371 20.7373 66.4964 20.717 66.4556 20.6967C66.2588 20.5819 66.0688 20.4334 65.8517 20.3726C65.5192 20.2848 65.1663 20.3253 64.8338 20.2578C64.3656 20.1565 63.8973 20.0417 63.4223 19.9675C62.8319 19.8797 62.2144 19.8527 61.6376 20.0282C61.3797 20.1025 61.0608 20.2106 60.8708 20.4131C60.7147 20.5887 60.7147 20.7845 60.6672 21.0006C60.6197 21.2032 60.5925 21.4058 60.5925 21.6083C60.5925 22.3714 60.8843 23.1277 61.2643 23.7827C61.4679 24.1338 61.7054 24.4579 61.9701 24.7686C62.2144 25.0522 62.4994 25.4236 62.8048 25.6261C63.1101 25.8287 63.3205 25.9773 63.5105 26.2879C63.6462 26.504 63.6598 26.5715 63.9177 26.6728C64.3384 26.8349 64.8134 26.8281 65.2613 26.8619C65.8381 26.9024 66.4692 26.9159 67.0392 26.8079C67.4735 26.7336 67.5618 26.423 67.9146 26.2204C68.2472 26.0246 68.4168 25.9975 68.5661 25.6329C69.2583 23.992 68.4032 22.5942 67.3921 21.4125" fill="white"/>
</svg>
