<svg width="60" height="60" viewBox="0 0 60 60" fill="none" xmlns="http://www.w3.org/2000/svg">
<path d="M24.375 7.5C20.7935 7.5 17.8931 10.1001 17.168 13.4766C12.7954 14.2603 9.375 17.9077 9.375 22.5C9.375 22.9614 9.42627 23.3716 9.49219 23.7891C8.28369 25.5688 7.5 27.6636 7.5 30C7.5 33.3691 9.17725 36.2036 11.543 38.2617C11.3745 38.9282 11.25 39.5947 11.25 40.3125C11.25 44.9487 15.0513 48.75 19.6875 48.75C19.7388 48.75 19.7607 48.75 19.8047 48.75C20.896 50.8667 22.7856 52.5 25.3125 52.5C27.1436 52.5 28.8062 51.731 30 50.5078C31.1938 51.731 32.8564 52.5 34.6875 52.5C37.2144 52.5 39.104 50.8667 40.1953 48.75C40.2393 48.75 40.2612 48.75 40.3125 48.75C44.7144 48.75 48.3252 45.3223 48.6914 41.0156H48.75C48.75 40.8984 48.6987 40.7812 48.6914 40.6641C48.6987 40.5469 48.75 40.4297 48.75 40.3125C48.75 39.6167 48.501 39.0234 48.3398 38.3789C50.7715 36.3135 52.5 33.4277 52.5 30C52.5 27.6636 51.7163 25.5688 50.5078 23.7891C50.5737 23.3716 50.625 22.9614 50.625 22.5C50.625 17.9077 47.2046 14.2603 42.832 13.4766C42.1069 10.1001 39.2065 7.5 35.625 7.5C33.3765 7.5 31.377 8.54736 30 10.1367C28.623 8.54736 26.6235 7.5 24.375 7.5ZM24.375 11.25C26.4697 11.25 28.125 12.9053 28.125 15V18.75C28.125 21.8774 25.6274 24.375 22.5 24.375V28.125C24.624 28.125 26.5503 27.3926 28.125 26.1914V45.9375C28.125 47.5122 26.8872 48.75 25.3125 48.75C23.9136 48.75 22.793 47.7832 22.5586 46.4648L22.207 44.6484L20.3906 44.9414C20.061 44.9927 19.856 45 19.6875 45C17.0801 45 15 42.9199 15 40.3125C15 39.7339 15.0952 39.1919 15.293 38.6719C15.3076 38.6279 15.3369 38.5986 15.3516 38.5547C15.9302 37.1118 17.1899 36.0571 18.75 35.7422L17.9883 32.0508C16.0327 32.4463 14.3335 33.4863 13.125 34.9805C11.9458 33.6621 11.25 31.9189 11.25 30C11.25 28.2422 11.8506 26.6748 12.8906 25.3711L13.4766 24.668L13.3008 23.7305C13.1982 23.291 13.125 22.9028 13.125 22.5C13.125 19.3726 15.6226 16.875 18.75 16.875H20.625V15C20.625 12.9053 22.2803 11.25 24.375 11.25ZM35.625 11.25C37.7197 11.25 39.375 12.9053 39.375 15V16.875H41.25C44.3774 16.875 46.875 19.3726 46.875 22.5C46.875 22.9028 46.8018 23.291 46.6992 23.7305L46.5234 24.668L47.1094 25.3711C48.1494 26.6748 48.75 28.2422 48.75 30C48.75 32.2485 47.7905 34.2554 46.2305 35.625C44.9487 34.4897 43.3154 33.75 41.4844 33.75C39.7119 33.75 38.1152 34.3799 36.8555 35.4492L39.2578 38.3203C39.8657 37.8076 40.6128 37.5 41.4844 37.5C43.2935 37.5 44.7363 38.855 44.9414 40.6055C44.7876 43.0737 42.8174 45 40.3125 45C40.144 45 39.939 44.9927 39.6094 44.9414L37.793 44.6484L37.4414 46.4648C37.207 47.7832 36.0864 48.75 34.6875 48.75C33.1128 48.75 31.875 47.5122 31.875 45.9375V26.1914C33.4497 27.3926 35.376 28.125 37.5 28.125V24.375C34.3726 24.375 31.875 21.8774 31.875 18.75V15C31.875 12.9053 33.5303 11.25 35.625 11.25Z" fill="white"/>
</svg>
