<svg width="60" height="60" viewBox="0 0 60 60" fill="none" xmlns="http://www.w3.org/2000/svg">
<path d="M58.0437 16.013H48.9135C47.833 16.013 46.9571 16.889 46.9571 17.9695V17.9933C41.6392 15.056 34.6855 15.3276 29.6405 19.0569C28.6685 19.7753 27.4317 19.9262 26.5657 19.9262H21.5228C19.0101 19.9262 16.8619 21.5138 16.0264 23.7381L10.0209 17.7326C7.72655 15.4383 4.01534 15.4381 1.72081 17.7326C-0.573486 20.0268 -0.573721 23.7383 1.72081 26.0327L13.4597 37.7716C14.5685 38.8804 16.0424 39.4911 17.6097 39.4911H46.9568V41.4475C46.9568 42.528 47.8328 43.404 48.9133 43.404H58.0435C59.1239 43.404 59.9999 42.528 59.9999 41.4475V17.9698C60.0001 16.889 59.1243 16.013 58.0437 16.013ZM46.9569 35.5777H17.6098V35.5778C17.0952 35.5778 16.591 35.3689 16.2267 35.0044L4.48784 23.2657C3.72272 22.5003 3.72284 21.2646 4.48784 20.4993C5.25062 19.7367 6.4914 19.7367 7.25417 20.4993L17.8466 31.0918C18.2135 31.4587 18.7111 31.6649 19.23 31.6649C21.138 31.6649 35.3854 31.6649 37.1746 31.6649C38.2551 31.6649 39.131 30.789 39.131 29.7085C39.131 28.628 38.2551 27.7521 37.1746 27.7521C36.9701 27.7521 21.731 27.7521 21.5228 27.7521C20.444 27.7521 19.5664 26.8743 19.5664 25.7956C19.5664 24.7168 20.4441 23.8392 21.5228 23.8392H26.5657C28.6512 23.8392 30.5188 23.2736 31.9664 22.2036C36.3518 18.9622 42.9037 19.2487 46.9571 22.7388V35.5777H46.9569ZM56.0873 39.4908H50.87C50.87 38.7125 50.87 20.836 50.87 19.926H56.0873V39.4908Z" fill="white"/>
</svg>
