<svg width="60" height="60" viewBox="0 0 60 60" fill="none" xmlns="http://www.w3.org/2000/svg">
<path d="M21.8759 6.12188C21.9711 5.7979 22.1688 5.5135 22.4392 5.31125C22.7096 5.109 23.0382 4.9998 23.3759 5H35.8759C36.1234 5.00019 36.3672 5.05914 36.5874 5.17201C36.8076 5.28488 36.9979 5.44844 37.1425 5.64922C37.2872 5.85 37.382 6.08226 37.4194 6.32688C37.4567 6.5715 37.4354 6.82148 37.3572 7.05625L31.7947 23.75H43.6884C43.981 23.7498 44.2678 23.8318 44.5161 23.9866C44.7644 24.1414 44.9643 24.3628 45.0929 24.6256C45.2215 24.8884 45.2738 25.182 45.2437 25.4731C45.2136 25.7642 45.1025 26.0409 44.9228 26.2719L23.0478 54.3969C22.8237 54.6864 22.5051 54.888 22.1475 54.9666C21.7899 55.0451 21.4161 54.9956 21.0913 54.8267C20.7665 54.6578 20.5113 54.3802 20.3703 54.0423C20.2292 53.7045 20.2113 53.3278 20.3197 52.9781L25.9478 34.6875H15.5634C15.3205 34.6876 15.0809 34.6311 14.8636 34.5225C14.6463 34.4138 14.4574 34.256 14.3118 34.0616C14.1662 33.8671 14.0679 33.6414 14.0248 33.4023C13.9817 33.1633 13.9949 32.9174 14.0634 32.6844L21.8759 6.12188Z" fill="white"/>
</svg>
