<svg width="60" height="60" viewBox="0 0 60 60" fill="none" xmlns="http://www.w3.org/2000/svg">
<path d="M52.5 17.5C52.5237 17.3258 52.5237 17.1492 52.5 16.975C52.4782 16.8282 52.4362 16.6852 52.375 16.55C52.309 16.4278 52.2337 16.3108 52.15 16.2C52.0549 16.0419 51.9369 15.8987 51.8 15.775L51.5 15.6C51.3557 15.4924 51.1954 15.408 51.025 15.35H50.525C50.3727 15.2025 50.1948 15.0839 50 15H37.5C36.837 15 36.2011 15.2634 35.7322 15.7322C35.2634 16.2011 35 16.837 35 17.5C35 18.163 35.2634 18.7989 35.7322 19.2678C36.2011 19.7366 36.837 20 37.5 20H44.575L34.575 31.775L23.775 25.35C23.2635 25.0458 22.6602 24.934 22.0736 25.0348C21.487 25.1356 20.9556 25.4424 20.575 25.9L8.07501 40.9C7.8645 41.1526 7.7059 41.4443 7.60829 41.7583C7.51068 42.0723 7.47597 42.4025 7.50616 42.7299C7.53635 43.0574 7.63084 43.3756 7.78422 43.6665C7.9376 43.9574 8.14686 44.2151 8.40001 44.425C8.84979 44.7977 9.41588 45.0011 10 45C10.3673 45.0006 10.7302 44.9203 11.0629 44.7647C11.3956 44.6092 11.6899 44.3822 11.925 44.1L23.05 30.75L33.725 37.15C34.2313 37.4503 34.8274 37.5623 35.4082 37.4663C35.989 37.3702 36.5173 37.0723 36.9 36.625L47.5 24.25V30C47.5 30.663 47.7634 31.2989 48.2322 31.7678C48.7011 32.2366 49.337 32.5 50 32.5C50.663 32.5 51.2989 32.2366 51.7678 31.7678C52.2366 31.2989 52.5 30.663 52.5 30V17.5Z" fill="white"/>
</svg>
