<svg width="60" height="60" viewBox="0 0 60 60" fill="none" xmlns="http://www.w3.org/2000/svg">
<path d="M30 5.625C18.9844 5.625 9.375 20.2875 9.375 33.75C9.375 47.2125 19.6875 54.375 30 54.375C40.3125 54.375 50.625 47.2125 50.625 33.75C50.625 20.2875 41.0156 5.625 30 5.625ZM30 50.625C21.8719 50.625 13.125 45.345 13.125 33.75C13.125 24.105 18.5625 14.3344 25.0106 10.7869L29.2238 15L23.5988 20.625L29.2238 26.25L23.5988 31.875L30.5494 38.8256L33.2006 36.1744L28.9012 31.875L34.5262 26.25L28.9012 20.625L34.5262 15L28.9912 9.465C29.3287 9.4275 29.6644 9.375 30 9.375C38.3588 9.375 46.875 21.6769 46.875 33.75C46.875 45.345 38.1281 50.625 30 50.625Z" fill="white"/>
</svg>
