<svg width="60" height="60" viewBox="0 0 60 60" fill="none" xmlns="http://www.w3.org/2000/svg">
<path fill-rule="evenodd" clip-rule="evenodd" d="M17.0598 45.4038L17.0607 45.4049L17.1994 44.8068L17.6723 45.3419C20.0675 48.0682 23.5121 49.625 27.1404 49.625H37.0427C43.9956 49.625 49.6677 43.9529 49.6677 37V20.125C49.6677 17.3176 47.3501 15 44.5427 15C43.6391 15 42.7936 15.2634 42.0369 15.6958L41.6223 15.9327L41.3666 15.5295C40.4491 14.083 38.8533 13.125 37.0427 13.125C36.1391 13.125 35.2936 13.3884 34.5369 13.8208L34.1223 14.0577L33.8666 13.6545C32.9491 12.208 31.3533 11.25 29.5427 11.25C27.7322 11.25 26.1363 12.208 25.2189 13.6545L24.9631 14.0577L24.5486 13.8208C24.5007 13.7935 24.4525 13.7668 24.404 13.7409L24.5206 13.2379C24.5206 13.2379 24.5206 13.2379 24.5206 13.2379L24.404 13.7409C23.6847 13.3562 22.8892 13.125 22.0427 13.125C19.2354 13.125 16.9177 15.4426 16.9177 18.25V25.2809L16.5679 25.7181L16.5618 25.7252C16.4906 25.8077 16.4215 25.8861 16.3542 25.9625L16.3535 25.9633C16.2857 26.0402 16.2198 26.1151 16.1523 26.1932C15.204 27.3008 14.3003 28.4723 13.4916 29.6636L13.4833 29.6759L12.8883 30.4494L12.8875 30.4503C12.1435 31.4128 11.6813 32.5388 11.4596 33.6957L11.4579 33.7046C11.438 33.7989 11.4073 33.889 11.3874 33.9476L11.387 33.9488L11.3809 33.9667C11.3585 34.033 11.3496 34.0643 11.3457 34.0868C11.0381 36.2782 11.6912 38.5612 13.2189 40.3025L17.1985 44.8057L17.0598 45.4038ZM17.9622 41.5132L17.1985 44.8057L17.1994 44.8068L17.963 41.5142L19.7326 43.5399L19.7333 43.5407C21.6098 45.6798 24.3039 46.875 27.1404 46.875H37.0427C42.5191 46.875 46.9177 42.4763 46.9177 37V28.4383L46.2492 28.6777C45.6951 28.8761 45.1305 29 44.5427 29C43.2404 29 42.0394 28.4885 41.1281 27.6643L40.7927 27.361L40.4574 27.6643C39.5461 28.4885 38.3451 29 37.0427 29C36.1391 29 35.2936 28.7366 34.5369 28.3042L34.1217 28.0669L33.8662 28.4711C33.1317 29.633 31.9354 30.4814 30.5543 30.7683L29.6286 30.9606L30.3086 31.6174C32.5113 33.7451 34.5334 37.166 34.6613 42.125H31.9111C31.7817 37.3037 29.7839 34.6342 27.7488 32.9793L27.7478 32.9784C26.8771 32.2743 26.0739 31.7831 25.3599 31.4494L25.0029 31.2825L21.6125 35.535L19.7038 34.008L19.868 33.2999L23.5486 28.638L23.9334 28.125H29.5427C30.8736 28.125 31.9177 27.0808 31.9177 25.75C31.9177 24.4192 30.8736 23.375 29.5427 23.375H22.6638L22.5081 23.5226L22.508 23.5226C22.4094 23.6161 22.2462 23.7707 22.0291 23.9815L22.8075 20.625H24.4177V18.25C24.4177 17.5886 24.1644 17.0008 23.7466 16.5754L24.404 13.7409C24.404 13.7409 24.404 13.7409 24.404 13.7409L23.7465 16.5753C23.319 16.1401 22.7194 15.875 22.0427 15.875C20.7046 15.875 19.6677 16.9118 19.6677 18.25V22.4068L20.513 21.6C20.5993 21.5176 20.7507 21.3661 20.876 21.2399C20.9396 21.1758 20.9981 21.1166 21.0407 21.0734L21.1099 21.0032L21.4881 20.625H22.8072L22.0285 23.982C21.2748 24.7139 19.8721 26.1227 18.2643 28.0032L18.2547 28.0144L15.4828 31.671L15.4744 31.6836C15.4444 31.7286 15.4082 31.7767 15.3613 31.8393L15.3612 31.8393L15.3412 31.866C15.29 31.9343 15.2251 32.0215 15.1708 32.1104L15.17 32.1116C14.5272 33.1704 14.2151 34.0138 14.1124 34.4929L14.1079 34.5141L14.1052 34.5356C14.0996 34.5804 14.0989 34.6197 14.0993 34.6494C14.0996 34.6658 14.1003 34.6816 14.101 34.6944L14.0997 34.6978L14.0981 34.7023C14.0922 34.7185 14.0844 34.7398 14.0781 34.7581C14.0747 34.7678 14.0696 34.783 14.0648 34.7996C14.0624 34.8076 14.0586 34.8215 14.0549 34.8384C14.053 34.847 14.0504 34.8598 14.0481 34.8753C14.0467 34.8852 14.0445 34.9018 14.0434 34.9228C13.9705 36.1828 14.3901 37.4313 15.2807 38.4436L17.9622 41.5132ZM18.1015 40.9127L17.9622 41.5132L17.963 41.5142L18.1023 40.9136L18.1015 40.9127ZM21.8173 24.8924L22.0285 23.982C22.0287 23.9818 22.0289 23.9816 22.0291 23.9815L21.8179 24.8919C21.8177 24.8921 21.8175 24.8922 21.8173 24.8924ZM19.5778 34.5476L19.5785 34.5481L19.7038 34.008L19.7031 34.0075L19.8669 33.3013L19.868 33.2999L20.133 32.1573L20.132 32.1586L19.8669 33.3013L19.4618 33.8144L19.7031 34.0075L19.5778 34.5476ZM22.9232 20.125L22.8072 20.625H22.8075L22.9234 20.125H22.9232ZM23.6041 17.1894L23.7465 16.5753C23.7465 16.5753 23.7466 16.5754 23.7466 16.5754L23.6042 17.1896C23.6041 17.1895 23.6041 17.1894 23.6041 17.1894ZM29.5427 14C28.2046 14 27.1677 15.0368 27.1677 16.375V20.625H29.5427C30.1305 20.625 30.695 20.7489 31.2492 20.9473L31.9177 21.1867V16.375C31.9177 15.0368 30.8809 14 29.5427 14ZM37.0427 15.875C35.7046 15.875 34.6677 16.9118 34.6677 18.25V23.875C34.6677 25.2132 35.7046 26.25 37.0427 26.25C38.3809 26.25 39.4177 25.2132 39.4177 23.875V18.25C39.4177 16.9118 38.3809 15.875 37.0427 15.875ZM44.5427 17.75C43.2046 17.75 42.1677 18.7868 42.1677 20.125V23.875C42.1677 25.2132 43.2046 26.25 44.5427 26.25C45.8809 26.25 46.9177 25.2132 46.9177 23.875V20.125C46.9177 18.7868 45.8809 17.75 44.5427 17.75Z" fill="white"/>
</svg>
