<svg width="60" height="60" viewBox="0 0 60 60" fill="none" xmlns="http://www.w3.org/2000/svg">
<path d="M21.1 49.6598C21.1006 50.2811 21.3476 50.8769 21.7868 51.3164C22.2261 51.7559 22.8216 52.0033 23.4429 52.0043H35.9255C36.5467 52.0031 37.1421 51.7556 37.5811 51.3161C38.0201 50.8766 38.267 50.281 38.2676 49.6598V42.017H21.1V49.6598ZM23.1177 44.034H36.2507V45.9439H23.1177V44.034ZM23.1177 47.9617H36.2507V49.6598C36.2485 49.7453 36.2135 49.8268 36.153 49.8873C36.0925 49.9478 36.011 49.9828 35.9255 49.985H23.4397C23.3542 49.9828 23.2728 49.9478 23.2123 49.8873C23.1518 49.8268 23.1168 49.7453 23.1146 49.6598L23.1177 47.9617ZM29.6842 7.00433C26.8105 7.00156 23.9919 7.7938 21.5405 9.2934C19.089 10.793 17.1002 12.9415 15.7939 15.5013C14.4877 18.061 13.9151 20.9322 14.1393 23.7972C14.3635 26.6622 15.3759 29.4093 17.0645 31.7347L17.9155 32.8498C17.9155 32.8498 18.7087 33.6803 19.4971 34.686C20.1377 35.3936 20.6256 36.2258 20.9302 37.1304V40.5949H38.4207V37.1304C38.7271 36.2267 39.2145 35.395 39.8532 34.686C40.6408 33.6803 41.4395 32.853 41.4395 32.8498L42.277 31.7719C43.9745 29.4482 44.9953 26.6997 45.2261 23.8312C45.4569 20.9628 44.8887 18.0864 43.5845 15.5212C42.2804 12.9559 40.2912 10.802 37.8377 9.29826C35.3841 7.7945 32.562 6.99969 29.6842 7.00196V7.00433ZM39.9317 31.4824L39.574 31.8925C39.248 32.255 38.7602 32.8118 38.2676 33.4423C37.4214 34.5916 36.4831 35.7297 36.4038 37.1304C36.4038 37.7047 36.4038 38.1925 36.4038 38.5779H30.6931V28.7501C31.7215 28.5031 32.6236 27.8874 33.2284 27.0197C33.8331 26.152 34.0985 25.0925 33.9741 24.0422C33.8498 22.9918 33.3444 22.0236 32.5538 21.3211C31.7632 20.6185 30.7423 20.2305 29.6846 20.2305C28.627 20.2305 27.606 20.6185 26.8154 21.3211C26.0248 22.0236 25.5194 22.9918 25.3951 24.0422C25.2707 25.0925 25.5361 26.152 26.1409 27.0197C26.7456 27.8874 27.6477 28.5031 28.6761 28.7501V38.5779H22.948V37.1304C22.8687 35.7297 21.9296 34.5924 21.0849 33.4423C20.824 33.1092 20.5646 32.7967 20.3299 32.5199H20.3354L19.4344 31.4809C17.727 29.5151 16.621 27.0998 16.2482 24.523C15.8754 21.9461 16.2515 19.3164 17.3317 16.9474C18.412 14.5784 20.1507 12.57 22.3407 11.1617C24.5306 9.75336 27.0793 9.00456 29.683 9.00456C32.2867 9.00456 34.8354 9.75336 37.0254 11.1617C39.2153 12.57 40.9541 14.5784 42.0343 16.9474C43.1145 19.3164 43.4907 21.9461 43.1179 24.523C42.7451 27.0998 41.639 29.5151 39.9317 31.4809V31.4824ZM29.685 26.8632C29.2301 26.8632 28.7854 26.7283 28.4071 26.4755C28.0289 26.2228 27.7341 25.8635 27.56 25.4432C27.3859 25.023 27.3403 24.5605 27.4291 24.1143C27.5178 23.6681 27.7369 23.2583 28.0586 22.9366C28.3803 22.6149 28.7901 22.3959 29.2363 22.3071C29.6825 22.2183 30.145 22.2639 30.5652 22.438C30.9855 22.6121 31.3447 22.9069 31.5975 23.2851C31.8502 23.6634 31.9852 24.1081 31.9852 24.563C31.9852 24.8651 31.9256 25.1642 31.8101 25.4432C31.6945 25.7223 31.525 25.9759 31.3114 26.1895C31.0978 26.403 30.8443 26.5725 30.5652 26.6881C30.2862 26.8037 29.9871 26.8632 29.685 26.8632V26.8632Z" fill="white" stroke="white" stroke-width="0.5"/>
</svg>
